<svg width="192" height="109" viewBox="0 0 192 109" fill="none" xmlns="http://www.w3.org/2000/svg">
<path d="M31.0151 82.5304C32.8044 79.7005 37.0401 78.9641 41.7202 80.6012C42.3775 80.8324 44.2823 81.6844 44.2823 81.6844C48.1529 83.4311 53.7215 87.4782 56.4419 89.9551C68.8631 101.281 78.704 106.296 86.9747 108.614C86.9747 108.614 60.562 109.771 37.454 95.9254C31.575 92.213 28.6964 86.2123 31.0212 82.5304H31.0151Z" fill="#50813D"/>
<path d="M160.985 82.5304C159.196 79.7005 154.96 78.9641 150.28 80.6012C149.623 80.8324 147.718 81.6844 147.718 81.6844C143.847 83.4311 138.279 87.4782 135.558 89.9551C123.137 101.281 113.296 106.296 105.025 108.614C105.025 108.614 131.438 109.771 154.546 95.9254C160.425 92.213 163.304 86.2123 160.979 82.5304H160.985Z" fill="#50813D"/>
<path d="M0.506698 70.9551C2.10119 66.695 8.43049 63.2199 11.8629 62.1732C45.4752 51.888 88.2162 88.0381 91.3382 91.8539C56.7949 72.507 41.1177 65.5752 13.5791 77.12C11.303 78.3311 8.7287 79.3962 6.12395 79.5361C1.2796 79.7978 -1.11214 75.2882 0.500612 70.9611L0.506698 70.9551Z" fill="#C5D8D1"/>
<path d="M191.493 70.9551C189.899 66.695 183.57 63.2199 180.137 62.1732C146.525 51.888 103.784 88.0381 100.662 91.8539C135.205 72.507 150.882 65.5752 178.421 77.12C180.697 78.3311 183.271 79.3962 185.876 79.5361C190.72 79.7978 193.112 75.2882 191.499 70.9611L191.493 70.9551Z" fill="#C5D8D1"/>
<path d="M33.0539 45.9422C33.0539 41.536 37.9165 37.9636 43.9111 37.9636C71.7904 38.2192 86.9686 77.8565 86.9686 77.8565C86.9686 77.8565 69.1857 59.3676 42.773 53.8782C41.6897 53.793 40.6612 53.5982 39.6936 53.3C35.7925 52.0889 33.0539 49.2529 33.0539 45.9483V45.9422Z" fill="#086E73"/>
<path d="M158.946 45.9422C158.946 41.536 154.083 37.9636 148.089 37.9636C120.21 38.2192 105.031 77.8565 105.031 77.8565C105.031 77.8565 122.814 59.3676 149.227 53.8782C150.31 53.793 151.339 53.5982 152.306 53.3C156.207 52.0889 158.946 49.2529 158.946 45.9483V45.9422Z" fill="#086E73"/>
<path d="M114.507 14.5635C114.507 6.51796 106.663 0 96.986 0C87.3095 0 79.337 6.52405 79.337 14.5635C79.4648 31.3361 94.2291 48.9669 96.8582 48.5165H96.986C100.741 48.5165 113.99 31.1292 114.513 14.6061C114.532 14.3505 114.507 14.8252 114.507 14.5635Z" fill="#D95204"/>
</svg>
