<svg width="16" height="10" viewBox="0 0 16 10" fill="none" xmlns="http://www.w3.org/2000/svg">
<path d="M2.58462 6.87759C2.73373 6.64177 3.08671 6.5804 3.47671 6.71682C3.53148 6.7361 3.69022 6.8071 3.69022 6.8071C4.01277 6.95265 4.47682 7.28991 4.70352 7.49632C5.73862 8.44014 6.55869 8.85803 7.24792 9.05126C7.24792 9.05126 5.04686 9.14762 3.12119 7.99384C2.63128 7.68448 2.3914 7.18442 2.58513 6.87759H2.58462Z" fill="#50813D"/>
<path d="M13.4154 6.87759C13.2663 6.64177 12.9133 6.5804 12.5233 6.71682C12.4686 6.7361 12.3098 6.8071 12.3098 6.8071C11.9873 6.95265 11.5232 7.28991 11.2965 7.49632C10.2614 8.44014 9.44136 8.85803 8.75214 9.05126C8.75214 9.05126 10.9532 9.14762 12.8789 7.99384C13.3688 7.68448 13.6087 7.18442 13.4149 6.87759H13.4154Z" fill="#50813D"/>
<path d="M0.0422248 5.913C0.1751 5.55799 0.702541 5.26841 0.988577 5.18118C3.7896 4.32409 7.35135 7.33659 7.61152 7.65457C4.7329 6.04233 3.42647 5.46468 1.13159 6.42675C0.941918 6.52768 0.727392 6.61643 0.510329 6.62809C0.106634 6.6499 -0.0926785 6.2741 0.0417177 5.91351L0.0422248 5.913Z" fill="#C5D8D1"/>
<path d="M15.9578 5.913C15.8249 5.55799 15.2975 5.26841 15.0114 5.18118C12.2104 4.32409 8.64866 7.33659 8.38849 7.65457C11.2671 6.04233 12.5735 5.46468 14.8684 6.42675C15.0581 6.52768 15.2726 6.61643 15.4897 6.62809C15.8934 6.6499 16.0927 6.2741 15.9583 5.91351L15.9578 5.913Z" fill="#C5D8D1"/>
<path d="M2.75452 3.82858C2.75452 3.4614 3.15973 3.1637 3.65928 3.1637C5.98256 3.185 7.24741 6.4881 7.24741 6.4881C7.24741 6.4881 5.7655 4.94736 3.56444 4.48991C3.47417 4.48281 3.38846 4.46658 3.30782 4.44173C2.98274 4.3408 2.75452 4.10447 2.75452 3.82908V3.82858Z" fill="#086E73"/>
<path d="M13.2455 3.82858C13.2455 3.4614 12.8403 3.1637 12.3407 3.1637C10.0175 3.185 8.75262 6.4881 8.75262 6.4881C8.75262 6.4881 10.2345 4.94736 12.4356 4.48991C12.5259 4.48281 12.6116 4.46658 12.6922 4.44173C13.0173 4.3408 13.2455 4.10447 13.2455 3.82908V3.82858Z" fill="#086E73"/>
<path d="M9.54224 1.21362C9.54224 0.543163 8.88852 0 8.08214 0C7.27576 0 6.61139 0.543671 6.61139 1.21362C6.62204 2.61134 7.8524 4.08057 8.07149 4.04304H8.08214C8.39505 4.04304 9.49913 2.5941 9.54275 1.21717C9.54427 1.19587 9.54224 1.23543 9.54224 1.21362Z" fill="#D95204"/>
</svg>
