<svg width="48" height="28" viewBox="0 0 48 28" fill="none" xmlns="http://www.w3.org/2000/svg">
<path d="M7.75381 20.6327C8.20112 19.9252 9.26006 19.7411 10.4301 20.1504C10.5944 20.2082 11.0706 20.4212 11.0706 20.4212C12.0383 20.8578 13.4304 21.8696 14.1105 22.4888C17.2158 25.3203 19.676 26.574 21.7437 27.1537C21.7437 27.1537 15.1405 27.4427 9.36352 23.9814C7.89378 23.0533 7.17413 21.5531 7.75533 20.6327H7.75381Z" fill="#50813D"/>
<path d="M40.2462 20.6327C39.7989 19.9252 38.74 19.7411 37.57 20.1504C37.4056 20.2082 36.9294 20.4212 36.9294 20.4212C35.9618 20.8578 34.5696 21.8696 33.8895 22.4888C30.7842 25.3203 28.324 26.574 26.2563 27.1537C26.2563 27.1537 32.8595 27.4427 38.6365 23.9814C40.1063 23.0533 40.8259 21.5531 40.2447 20.6327H40.2462Z" fill="#50813D"/>
<path d="M0.126674 17.7389C0.525299 16.6739 2.10762 15.8051 2.96573 15.5434C11.3688 12.9721 22.054 22.0096 22.8346 22.9636C14.1987 18.1269 10.2794 16.3939 3.39478 19.2801C2.82576 19.5829 2.18218 19.8492 1.53099 19.8842C0.319901 19.9496 -0.278036 18.8222 0.125153 17.7404L0.126674 17.7389Z" fill="#C5D8D1"/>
<path d="M47.8733 17.7389C47.4747 16.6739 45.8924 15.8051 45.0343 15.5434C36.6312 12.9721 25.946 22.0096 25.1655 22.9636C33.8013 18.1269 37.7206 16.3939 44.6052 19.2801C45.1743 19.5829 45.8179 19.8492 46.469 19.8842C47.6801 19.9496 48.2781 18.8222 47.8749 17.7404L47.8733 17.7389Z" fill="#C5D8D1"/>
<path d="M8.26349 11.4856C8.26349 10.3841 9.47914 9.49097 10.9778 9.49097C17.9476 9.55487 21.7422 19.4642 21.7422 19.4642C21.7422 19.4642 17.2964 14.842 10.6933 13.4696C10.4224 13.4483 10.1653 13.3996 9.92341 13.3251C8.94815 13.0223 8.26349 12.3133 8.26349 11.4871V11.4856Z" fill="#086E73"/>
<path d="M39.7365 11.4856C39.7365 10.3841 38.5209 9.49097 37.0222 9.49097C30.0524 9.55487 26.2579 19.4642 26.2579 19.4642C26.2579 19.4642 30.7036 14.842 37.3068 13.4696C37.5776 13.4483 37.8347 13.3996 38.0766 13.3251C39.0519 13.0223 39.7365 12.3133 39.7365 11.4871V11.4856Z" fill="#086E73"/>
<path d="M28.6268 3.64087C28.6268 1.62949 26.6656 0 24.2465 0C21.8273 0 19.8342 1.63101 19.8342 3.64087C19.8662 7.83403 23.5573 12.2417 24.2145 12.1291H24.2465C25.1852 12.1291 28.4975 7.7823 28.6283 3.65152C28.6329 3.58762 28.6268 3.70629 28.6268 3.64087Z" fill="#D95204"/>
</svg>
