<svg width="96" height="55" viewBox="0 0 96 55" fill="none" xmlns="http://www.w3.org/2000/svg">
<path d="M15.5076 41.2652C16.4022 39.8502 18.5201 39.482 20.8601 40.3006C21.1887 40.4162 22.1411 40.8422 22.1411 40.8422C24.0765 41.7155 26.8607 43.7391 28.2209 44.9776C34.4316 50.6405 39.352 53.1478 43.4873 54.3072C43.4873 54.3072 30.281 54.8854 18.727 47.9627C15.7875 46.1065 14.3482 43.1062 15.5106 41.2652H15.5076Z" fill="#50813D"/>
<path d="M80.4924 41.2652C79.5978 39.8502 77.4799 39.482 75.1399 40.3006C74.8113 40.4162 73.8588 40.8422 73.8588 40.8422C71.9235 41.7155 69.1392 43.7391 67.7791 44.9776C61.5684 50.6405 56.648 53.1478 52.5127 54.3072C52.5127 54.3072 65.719 54.8854 77.273 47.9627C80.2125 46.1065 81.6518 43.1062 80.4894 41.2652H80.4924Z" fill="#50813D"/>
<path d="M0.253349 35.4775C1.0506 33.3475 4.21525 31.61 5.93146 31.0866C22.7376 25.944 44.1081 44.019 45.6691 45.927C28.3974 36.2535 20.5588 32.7876 6.78957 38.56C5.65151 39.1656 4.36435 39.6981 3.06198 39.7681C0.639801 39.8989 -0.556071 37.6441 0.250306 35.4806L0.253349 35.4775Z" fill="#C5D8D1"/>
<path d="M95.7466 35.4775C94.9494 33.3475 91.7847 31.61 90.0685 31.0866C73.2624 25.944 51.8919 44.019 50.3309 45.927C67.6026 36.2535 75.4412 32.7876 89.2104 38.56C90.3485 39.1656 91.6356 39.6981 92.938 39.7681C95.3602 39.8989 96.5561 37.6441 95.7497 35.4806L95.7466 35.4775Z" fill="#C5D8D1"/>
<path d="M16.5269 22.9711C16.5269 20.768 18.9583 18.9818 21.9555 18.9818C35.8952 19.1096 43.4843 38.9282 43.4843 38.9282C43.4843 38.9282 34.5928 29.6838 21.3865 26.9391C20.8449 26.8965 20.3306 26.7991 19.8468 26.65C17.8963 26.0445 16.5269 24.6265 16.5269 22.9741V22.9711Z" fill="#086E73"/>
<path d="M79.4731 22.9711C79.4731 20.768 77.0417 18.9818 74.0445 18.9818C60.1048 19.1096 52.5157 38.9282 52.5157 38.9282C52.5157 38.9282 61.4072 29.6838 74.6135 26.9391C75.1551 26.8965 75.6694 26.7991 76.1532 26.65C78.1037 26.0445 79.4731 24.6265 79.4731 22.9741V22.9711Z" fill="#086E73"/>
<path d="M57.2536 7.28174C57.2536 3.25898 53.3313 0 48.493 0C43.6548 0 39.6685 3.26202 39.6685 7.28174C39.7324 15.6681 47.1146 24.4834 48.4291 24.2583H48.493C50.3705 24.2583 56.995 15.5646 57.2567 7.30304C57.2658 7.17523 57.2536 7.41258 57.2536 7.28174Z" fill="#D95204"/>
</svg>
