<svg width="512" height="290" viewBox="0 0 512 290" fill="none" xmlns="http://www.w3.org/2000/svg">
<path d="M82.707 220.081C87.4783 212.535 98.7737 210.571 111.254 214.936C113.007 215.553 118.086 217.825 118.086 217.825C128.408 222.483 143.257 233.275 150.512 239.88C183.635 270.082 209.877 283.455 231.932 289.638C231.932 289.638 161.499 292.722 99.8773 255.801C84.2001 245.901 76.5238 229.9 82.7233 220.081H82.707Z" fill="#50813D"/>
<path d="M429.293 220.081C424.522 212.535 413.226 210.571 400.746 214.936C398.993 215.553 393.914 217.825 393.914 217.825C383.592 222.483 368.743 233.275 361.488 239.88C328.365 270.082 302.123 283.455 280.068 289.638C280.068 289.638 350.501 292.722 412.123 255.801C427.8 245.901 435.476 229.9 429.277 220.081H429.293Z" fill="#50813D"/>
<path d="M1.35119 189.214C5.60319 177.853 22.4813 168.587 31.6345 165.795C121.267 138.368 235.243 234.768 243.569 244.944C151.453 193.352 109.647 174.867 36.211 205.653C30.1414 208.883 23.2765 211.723 16.3305 212.096C3.41227 212.794 -2.96571 200.769 1.33497 189.23L1.35119 189.214Z" fill="#C5D8D1"/>
<path d="M510.649 189.214C506.397 177.853 489.519 168.587 480.365 165.795C390.733 138.368 276.757 234.768 268.431 244.944C360.547 193.352 402.353 174.867 475.789 205.653C481.859 208.883 488.723 211.723 495.669 212.096C508.588 212.794 514.966 200.769 510.665 189.23L510.649 189.214Z" fill="#C5D8D1"/>
<path d="M88.1437 122.513C88.1437 110.763 101.111 101.236 117.096 101.236C191.441 101.918 231.916 207.617 231.916 207.617C231.916 207.617 184.495 158.314 114.061 143.675C111.173 143.448 108.43 142.929 105.85 142.133C95.4468 138.904 88.1437 131.341 88.1437 122.529V122.513Z" fill="#086E73"/>
<path d="M423.856 122.513C423.856 110.763 410.889 101.236 394.904 101.236C320.559 101.918 280.084 207.617 280.084 207.617C280.084 207.617 327.505 158.314 397.939 143.675C400.827 143.448 403.57 142.929 406.15 142.133C416.553 138.904 423.856 131.341 423.856 122.529V122.513Z" fill="#086E73"/>
<path d="M305.353 38.8359C305.353 17.3812 284.434 0 258.629 0C232.825 0 211.565 17.3975 211.565 38.8359C211.906 83.563 251.278 130.578 258.289 129.377H258.629C268.643 129.377 303.973 83.0112 305.369 38.9495C305.418 38.2679 305.353 39.5338 305.353 38.8359Z" fill="#D95204"/>
</svg>
