<svg width="437" height="90" viewBox="0 0 437 90" fill="none" xmlns="http://www.w3.org/2000/svg">
<path d="M10.51 45C8.55511 43.6893 6.80597 42.0952 5.32001 40.27L0 45L5.32001 49.73C6.80056 47.8997 8.55052 46.3048 10.51 45Z" fill="#363636"/>
<path d="M6.93987 53.1901C5.97902 54.7969 5.2771 56.545 4.85986 58.3701H14.5199L14.6999 57.6001C15.2649 55.0151 16.3406 52.569 17.8638 50.4053C19.3869 48.2416 21.3269 46.4039 23.5699 45.0001C21.0028 43.3205 18.8214 41.1153 17.1699 38.5301C16.0341 36.627 15.2008 34.559 14.6999 32.4001L14.5199 31.6201H4.85986C5.2771 33.4452 5.97902 35.1933 6.93987 36.8001C8.8132 39.8601 12.2165 42.5934 17.1499 45.0001C12.2099 47.4001 8.80653 50.1301 6.93987 53.1901Z" fill="#363636"/>
<path d="M90.0697 45.0001C85.1297 42.5868 81.723 39.8534 79.8497 36.8001C78.8963 35.1907 78.198 33.4433 77.7797 31.6201H60.6697C61.0791 33.4461 61.7779 35.1948 62.7397 36.8001C64.5597 39.522 67.0089 41.7653 69.8797 43.3401H42.5197C39.6509 41.7625 37.2024 39.5197 35.3797 36.8001C34.4263 35.1907 33.728 33.4433 33.3097 31.6201H17.9297C18.348 33.4433 19.0463 35.1907 19.9997 36.8001C21.873 39.8601 25.2797 42.5934 30.2197 45.0001C25.2797 47.4001 21.873 50.1301 19.9997 53.1901C19.0463 54.7995 18.348 56.5469 17.9297 58.3701H33.3097C33.728 56.5469 34.4263 54.7995 35.3797 53.1901C37.2044 50.4711 39.6568 48.2314 42.5297 46.6601H69.8797C67.0095 48.2314 64.5604 50.4713 62.7397 53.1901C61.7779 54.7954 61.0791 56.5441 60.6697 58.3701H77.7897C78.208 56.5469 78.9063 54.7995 79.8597 53.1901C81.733 50.1301 85.1397 47.4001 90.0797 45.0001H90.0697Z" fill="#363636"/>
<path d="M50.36 86.7502C53.69 86.0602 54.98 85.0602 55.46 84.5202C55.69 84.2602 56.38 83.2302 56.57 80.0402L35.92 61.7002H18.77L47.59 87.3302L50.36 86.7502Z" fill="#363636"/>
<path d="M55.4598 5.46994C54.9798 4.92994 53.6898 3.93994 50.3598 3.24994L47.6598 2.68994L18.7998 28.3H35.9298L56.5598 9.98996C56.3798 6.77996 55.6898 5.69994 55.4598 5.46994Z" fill="#363636"/>
<path d="M60.0698 28.3H77.1898C77.0798 27.2 77.0198 26.05 77.0198 24.83V11.77C77.0198 7.60002 76.3598 4.77001 75.0198 3.26001C73.6798 1.75001 71.3798 0.67 68.1098 0H51.0698C54.3365 0.666667 56.6398 1.75334 57.9798 3.26001C59.3198 4.76668 59.9865 7.60335 59.9798 11.77V24.83C59.9398 26.05 59.9998 27.2 60.0698 28.3Z" fill="#363636"/>
<path d="M51.0698 89.9999H68.1898C71.4598 89.3199 73.7698 88.2299 75.0998 86.7299C76.4298 85.2299 77.0998 82.3899 77.0998 78.2299V65.1599C77.0998 63.9499 77.1598 62.7899 77.2698 61.6899H60.0698C59.9598 62.7899 59.8998 63.9499 59.8998 65.1599V78.2299C59.8998 82.3899 59.2298 85.2299 57.8998 86.7299C56.5698 88.2299 54.2998 89.3199 51.0698 89.9999Z" fill="#363636"/>
<path d="M172.27 81.7002H152.84L128.93 52.0102H128.39V81.7002H111.39V9.7002H128.39V39.9302H128.93L151.64 9.7002H169.86L144.07 44.9802L172.27 81.7002Z" fill="#363636"/>
<path d="M174.78 14.8599C174.78 10.4899 176.78 7.6499 184.06 7.6499C191.15 7.6499 193.44 10.2699 193.44 14.8599C193.44 19.8599 190.72 22.0599 184.06 22.0599C177.84 22.0599 174.78 20.0999 174.78 14.8599ZM175.98 26.8599C178.677 27.4059 181.418 27.7005 184.17 27.7399C186.918 27.7076 189.657 27.4129 192.35 26.8599V81.6999H175.98V26.8599Z" fill="#363636"/>
<path d="M202.39 27.0797H218.44V36.5797H218.99C222.99 29.8097 228.92 25.2197 237.65 25.2197C247.47 25.2197 254.24 31.0097 254.24 45.8597V81.6997H237.87V51.7497C237.87 44.5497 235.47 39.6297 229.36 39.6297C224.55 39.6297 218.77 42.7997 218.77 54.0397V81.6997H202.39V27.0797Z" fill="#363636"/>
<path d="M261.67 54.3698C261.67 37.3698 269.42 25.2197 289.5 25.2197C306.2 25.2197 317.33 33.8498 317.33 54.3698C317.33 71.3698 309.58 83.3698 289.5 83.3698C272.8 83.3997 261.67 74.8898 261.67 54.3698ZM301.29 54.3698C301.29 44.5498 298.12 37.2297 289.5 37.2297C282.3 37.2297 277.71 42.4698 277.71 54.3698C277.71 64.1898 280.88 71.5097 289.5 71.5097C296.59 71.5097 301.29 66.2698 301.29 54.3698Z" fill="#363636"/>
<path d="M341.07 73.9097H340.63V81.6997H325.19V7.42969H341.57V35.6997H342.07C346 29.5897 352.33 25.2197 360.63 25.2197C372.85 25.2197 381.37 33.7397 381.37 52.3997C381.37 69.9797 374.71 83.3997 358.77 83.3997C352.15 83.3997 345.17 80.8897 341.07 73.9097ZM365.41 54.2597C365.41 43.7797 361.48 37.2597 353.84 37.2597C347.07 37.2597 341.62 42.4997 341.62 54.6197C341.62 64.7697 345.44 71.5397 353.41 71.5397C360.89 71.5097 365.36 65.4997 365.36 54.2597H365.41Z" fill="#363636"/>
<path d="M385.56 69.7597C385.56 60.0397 393.42 55.7597 399.64 54.0397C404.44 52.7297 417.21 50.5497 417.21 43.8897C417.21 40.1797 413.83 37.7797 408.48 37.7797C402.26 37.7797 395.16 41.0498 390.14 45.0898V31.5597C395.6 27.9497 404.22 25.2197 412.74 25.2197C425.83 25.2197 433.26 31.4497 433.36 45.3097C433.36 54.6997 433.47 59.9398 433.91 65.1797C434.237 70.7925 435.265 76.3424 436.97 81.6997H421.58C420.44 78.6857 419.74 75.5233 419.5 72.3097H418.85C417.258 75.7149 414.707 78.5816 411.51 80.5586C408.312 82.5355 404.608 83.5368 400.85 83.4397C392.54 83.3997 385.56 78.9297 385.56 69.7597ZM417.65 57.9697V55.5697C415.03 58.6297 410.12 59.4997 406.84 60.9197C403.35 62.4497 401.06 64.4097 401.06 67.6897C401.06 71.1797 403.78 72.3797 406.51 72.3797C412.41 72.3797 417.65 67.1397 417.65 57.9697Z" fill="#363636"/>
</svg>
