<svg xmlns:mydata="http://www.w3.org/2000/svg" mydata:contrastcolor="11111f" mydata:template="Contrast" mydata:presentation="2.5" mydata:layouttype="undefined" mydata:specialfontid="undefined" mydata:id1="299" mydata:id2="035" mydata:companyname="C'Ben Correc'" mydata:companytagline="" version="1.1" xmlns="http://www.w3.org/2000/svg" xmlns:xlink="http://www.w3.org/1999/xlink" viewBox="0 0 550 470"><g fill="#ed8b00" fill-rule="none" stroke="none" stroke-width="1" stroke-linecap="butt" stroke-linejoin="miter" stroke-miterlimit="10" stroke-dasharray="" stroke-dashoffset="0" font-family="none" font-weight="none" font-size="none" text-anchor="none" style="mix-blend-mode: normal"><g data-paper-data="{&quot;isGlobalGroup&quot;:true,&quot;bounds&quot;:{&quot;x&quot;:133.36920605345145,&quot;y&quot;:114.99999999999997,&quot;width&quot;:283.26158789309716,&quot;height&quot;:239.99999999999997}}"><g data-paper-data="{&quot;isPrimaryText&quot;:true}" fill-rule="nonzero"><path d="M169.66186,342.05949c-0.08899,0.13349 -0.26697,0.28922 -0.53395,0.4672c-0.26697,0.17798 -0.4672,0.26697 -0.60069,0.26697c-0.22248,0.31147 -0.50057,0.48945 -0.83429,0.53395c-0.33372,0.0445 -0.56732,0.22248 -0.7008,0.53395c-0.0445,0 -0.06674,-0.01112 -0.06674,-0.03337c0,-0.02225 -0.0445,-0.03337 -0.13349,-0.03337c-0.26697,0.13349 -0.61181,0.35596 -1.03452,0.66743c-0.42271,0.31147 -0.85654,0.61181 -1.30149,0.90103c-0.44495,0.28922 -0.85654,0.55619 -1.23475,0.80092c-0.37821,0.24473 -0.63406,0.36709 -0.76755,0.36709c-0.08899,0.17798 -0.24473,0.31147 -0.4672,0.40046c-0.22248,0.08899 -0.42271,0.17798 -0.60069,0.26697c-0.31147,0.17798 -0.62294,0.36709 -0.9344,0.56732c-0.31147,0.20023 -0.64518,0.36709 -1.00115,0.50057c-0.44495,0.40046 -0.95665,0.68968 -1.53509,0.86766c-4.62753,2.9367 -8.68774,4.76102 -12.18064,5.47294c-3.49289,0.71193 -6.26274,0.45608 -8.30953,-0.76755c-2.04679,-1.22363 -3.32604,-3.34828 -3.83773,-6.37398c-0.5117,-3.02569 -0.12236,-6.83005 1.16801,-11.41309c0,-0.13349 -0.02225,-0.20023 -0.06674,-0.20023c0.13349,-0.13349 0.18911,-0.28922 0.16686,-0.4672c-0.02225,-0.17798 0.05562,-0.31147 0.2336,-0.40046c-0.08899,-0.22248 -0.06674,-0.38934 0.06674,-0.50057c0.13349,-0.11124 0.20023,-0.2781 0.20023,-0.50057c0.0445,-0.0445 0.14461,-0.22248 0.30034,-0.53395c0.15573,-0.31147 0.30034,-0.65631 0.43383,-1.03452c0.13349,-0.37821 0.26697,-0.73418 0.40046,-1.06789c0.13349,-0.33372 0.20023,-0.54507 0.20023,-0.63406c0.48945,-0.62294 0.88991,-1.30149 1.20138,-2.03567c0.31147,-0.73418 0.66743,-1.36824 1.06789,-1.90218v-0.26697c0.31147,-0.9344 0.95665,-2.21365 1.93555,-3.83773c0.9789,-1.62408 2.20253,-3.4039 3.67088,-5.33946c1.46835,-1.93555 3.12581,-3.94897 4.97237,-6.04026c1.84656,-2.09129 3.77099,-4.08246 5.77329,-5.97352c2.0023,-1.89106 4.01572,-3.59301 6.04026,-5.10586c2.02454,-1.51285 3.97122,-2.66973 5.84003,-3.47065c1.86881,-0.80092 3.59301,-1.14576 5.1726,-1.03452c1.57959,0.11124 2.92558,0.83429 4.03796,2.16915c0.31147,0.26697 0.57844,0.64518 0.80092,1.13463c0.22248,0.48945 0.41158,1.0234 0.56732,1.60184c0.15573,0.57844 0.25585,1.14576 0.30034,1.70195c0.0445,0.55619 0.0445,1.03452 0,1.43498c0,0.22248 -0.06674,0.54507 -0.20023,0.96778c-0.13349,0.42271 -0.24473,0.7453 -0.33372,0.96778c-0.08899,0.26697 -0.20023,0.52282 -0.33372,0.76755c-0.13349,0.24473 -0.24473,0.47833 -0.33372,0.7008c-0.31147,0.75642 -0.55619,1.29037 -0.73418,1.60184c-0.08899,0.08899 -0.20023,0.14461 -0.33372,0.16686c-0.13349,0.02225 -0.15573,0.07787 -0.06674,0.16686c-0.22248,0 -0.36709,0.0445 -0.43383,0.13349c-0.06674,0.08899 -0.14461,0.15573 -0.2336,0.20023c-0.17798,0.0445 -0.33372,0.0445 -0.4672,0c-0.13349,-0.0445 -0.26697,-0.0445 -0.40046,0c-0.88991,-0.35596 -1.4906,-0.91216 -1.80207,-1.66858c-0.22248,-0.53395 -0.18911,-1.00115 0.10011,-1.40161c0.28922,-0.40046 0.52282,-0.77867 0.7008,-1.13463c0.08899,-0.22248 0.14461,-0.42271 0.16686,-0.60069c0.02225,-0.17798 0.07787,-0.37821 0.16686,-0.60069c0.22248,-0.57844 0.40046,-1.15688 0.53395,-1.73532c0.13349,-0.57844 0.17798,-1.11239 0.13349,-1.60184c0,-0.48945 -0.21135,-0.85654 -0.63406,-1.10126c-0.42271,-0.24473 -0.94553,-0.30034 -1.56847,-0.16686c-0.62294,0.13349 -1.20138,0.31147 -1.73532,0.53395c-0.53395,0.22248 -1.05677,0.4672 -1.56847,0.73418c-0.5117,0.26697 -1.01227,0.53395 -1.50172,0.80092c-0.48945,0.26697 -1.0234,0.5117 -1.60184,0.73418c-0.13349,0.26697 -0.31147,0.44495 -0.53395,0.53395c-0.22248,0.08899 -0.44495,0.22248 -0.66743,0.40046c-0.22248,0.08899 -0.45608,0.24473 -0.7008,0.4672c-0.24473,0.22248 -0.50057,0.40046 -0.76755,0.53395c-0.08899,0.08899 -0.18911,0.14461 -0.30034,0.16686c-0.11124,0.02225 -0.21135,0.07787 -0.30034,0.16686c-0.75642,0.66743 -1.55734,1.33486 -2.40276,2.0023c-0.22248,0.22248 -0.4672,0.41158 -0.73418,0.56732c-0.26697,0.15573 -0.5117,0.34484 -0.73418,0.56732c-0.17798,0.26697 -0.41158,0.5117 -0.7008,0.73418c-0.28922,0.22248 -0.54507,0.44495 -0.76755,0.66743c-0.13349,0.08899 -0.22248,0.20023 -0.26697,0.33372c-0.0445,0.13349 -0.08899,0.24473 -0.13349,0.33372c-0.40046,0.35596 -0.80092,0.71193 -1.20138,1.06789c-0.40046,0.35596 -0.77867,0.73418 -1.13463,1.13463c-0.17798,0.13349 -0.33372,0.28922 -0.4672,0.4672c-0.13349,0.17798 -0.24473,0.35596 -0.33372,0.53395l-0.26697,0.13349c-0.0445,0.08899 -0.05562,0.15573 -0.03337,0.20023c0.02225,0.0445 0.01112,0.08899 -0.03337,0.13349c-0.26697,0.26697 -0.7008,0.77867 -1.30149,1.53509c-0.60069,0.75642 -1.23475,1.54622 -1.90218,2.36938c-0.66743,0.82317 -1.29037,1.62408 -1.86881,2.40276c-0.57844,0.77867 -0.9789,1.34599 -1.20138,1.70195c-0.08899,0.17798 -0.16686,0.34484 -0.2336,0.50057c-0.06674,0.15573 -0.16686,0.2781 -0.30034,0.36709c-0.75642,1.11239 -1.46835,2.24702 -2.13578,3.4039c-0.66743,1.15688 -1.31262,2.33601 -1.93555,3.53739c-0.26697,0.31147 -0.45608,0.63406 -0.56732,0.96778c-0.11124,0.33372 -0.2781,0.61181 -0.50057,0.83429h0.13349c-0.08899,0.0445 -0.14461,0.11124 -0.16686,0.20023c-0.02225,0.08899 -0.07787,0.11124 -0.16686,0.06674c0.08899,0.22248 0.06674,0.36709 -0.06674,0.43383c-0.13349,0.06674 -0.15573,0.18911 -0.06674,0.36709c-0.35596,0.48945 -0.61181,0.9789 -0.76755,1.46835c-0.15573,0.48945 -0.41158,1.0234 -0.76755,1.60184c-0.13349,0.66743 -0.34484,1.30149 -0.63406,1.90218c-0.28922,0.60069 -0.47833,1.27924 -0.56732,2.03567c-0.13349,0.17798 -0.20023,0.35596 -0.20023,0.53395c0,0.17798 -0.0445,0.37821 -0.13349,0.60069c-0.22248,0.9789 -0.41158,1.94668 -0.56732,2.90333c-0.15573,0.95665 -0.18911,2.03567 -0.10011,3.23705c0,0.88991 0.2336,1.79094 0.7008,2.7031c0.4672,0.91216 1.01227,1.56847 1.63521,1.96892c0.53395,0.35596 1.27924,0.48945 2.2359,0.40046c0.95665,-0.08899 1.74645,-0.22248 2.36938,-0.40046c0.53395,-0.17798 1.10126,-0.32259 1.70195,-0.43383c0.60069,-0.11124 1.16801,-0.25585 1.70195,-0.43383c1.24587,-0.48945 2.45837,-1.04564 3.6375,-1.66858c1.17913,-0.62294 2.34714,-1.20138 3.50402,-1.73532c0.26697,-0.17798 0.57844,-0.34484 0.9344,-0.50057c0.35596,-0.15573 0.71193,-0.32259 1.06789,-0.50057c0.22248,-0.22248 0.54507,-0.40046 0.96778,-0.53395c0.42271,-0.13349 0.7453,-0.35596 0.96778,-0.66743h0.13349l13.34864,-7.80896c2.53624,-1.46835 4.86113,-2.78097 6.97467,-3.93785c2.11353,-1.15688 3.9156,-2.09129 5.4062,-2.80321c1.4906,-0.71193 2.58074,-1.15688 3.27042,-1.33486c0.68968,-0.17798 0.87879,-0.0445 0.56732,0.40046c-0.31147,0.44495 -1.20138,1.22363 -2.66973,2.33601c-1.46835,1.11239 -3.62638,2.62523 -6.47409,4.53854c0,0.13349 -0.22248,0.33372 -0.66743,0.60069c-0.44495,0.26697 -0.82317,0.48945 -1.13463,0.66743c0.0445,0 0.07787,-0.01112 0.10011,-0.03337c0.02225,-0.02225 0.05562,-0.03337 0.10011,-0.03337c-0.48945,0.26697 -1.10126,0.64518 -1.83544,1.13463c-0.73418,0.48945 -1.47947,0.99002 -2.2359,1.50172c-0.75642,0.5117 -1.47947,0.9789 -2.16915,1.40161c-0.68968,0.42271 -1.2125,0.72305 -1.56847,0.90103z" data-paper-data="{&quot;glyphName&quot;:&quot;C&quot;,&quot;glyphIndex&quot;:0,&quot;firstGlyphOfWord&quot;:true,&quot;word&quot;:1}"></path><path d="M186.74812,306.0849c-0.0445,-0.80092 0.06674,-1.59071 0.33372,-2.36938c0.26697,-0.77867 0.53395,-1.50172 0.80092,-2.16915l0.80092,-2.13578c0.13349,-0.31147 0.25585,-0.65631 0.36709,-1.03452c0.11124,-0.37821 0.2781,-0.67856 0.50057,-0.90103c0.08899,-0.22248 0.35596,-0.52282 0.80092,-0.90103c0.44495,-0.37821 0.84541,-0.52282 1.20138,-0.43383c0.26697,0.08899 0.42271,0.2781 0.4672,0.56732c0.0445,0.28922 0.01112,0.60069 -0.10011,0.9344c-0.11124,0.33372 -0.24473,0.65631 -0.40046,0.96778c-0.15573,0.31147 -0.25585,0.53395 -0.30034,0.66743c-0.35596,0.88991 -0.68968,1.65746 -1.00115,2.30264c-0.31147,0.64518 -0.64518,1.36824 -1.00115,2.16915c-0.22248,0.48945 -0.42271,0.94553 -0.60069,1.36824c-0.17798,0.42271 -0.44495,0.7453 -0.80092,0.96778c-0.22248,-0.0445 -0.41158,-0.02225 -0.56732,0.06674c-0.15573,0.08899 -0.32259,0.06674 -0.50057,-0.06674z" data-paper-data="{&quot;glyphName&quot;:&quot;'&quot;,&quot;glyphIndex&quot;:1,&quot;word&quot;:1}"></path><path d="M193.8229,335.38517c0.9344,0.08899 1.85769,-0.06674 2.76984,-0.4672c0.91216,-0.40046 1.79094,-0.77867 2.63636,-1.13463c0.57844,-0.22248 1.13463,-0.53395 1.66858,-0.9344c0.08899,-0.0445 0.16686,-0.08899 0.2336,-0.13349c0.06674,-0.0445 0.14461,-0.13349 0.2336,-0.26697c0.44495,-0.35596 0.9344,-0.73418 1.46835,-1.13463c0.53395,-0.40046 0.9789,-0.82317 1.33486,-1.26812l0.60069,-0.4672c0.13349,-0.13349 0.20023,-0.20023 0.20023,-0.20023v-0.06674v-0.06674c0.0445,0 0.11124,-0.0445 0.20023,-0.13349l2.40276,-2.80321c0.0445,-0.26697 0.12236,-0.57844 0.2336,-0.9344c0.11124,-0.35596 0.07787,-0.64518 -0.10011,-0.86766c-0.31147,-0.08899 -0.73418,-0.11124 -1.26812,-0.06674c-0.53395,0.0445 -0.95665,0.08899 -1.26812,0.13349c-0.9344,0.31147 -1.89106,0.77867 -2.86996,1.40161c-0.9789,0.62294 -1.80207,1.13463 -2.4695,1.53509c-0.57844,0.31147 -1.31262,0.84541 -2.20253,1.60184c-0.88991,0.75642 -1.79094,1.56847 -2.7031,2.43613c-0.91216,0.86766 -1.75757,1.7242 -2.53624,2.56961c-0.77867,0.84541 -1.34599,1.4906 -1.70195,1.93555c-0.22248,0 -0.35596,0.08899 -0.40046,0.26697c-0.17798,0 -0.32259,0.03337 -0.43383,0.10011c-0.11124,0.06674 -0.30034,0.12236 -0.56732,0.16686c-0.13349,0 -0.20023,0 -0.20023,0c-0.13349,0.08899 -0.28922,0.17798 -0.4672,0.26697c-0.17798,0.08899 -0.33372,0.13349 -0.4672,0.13349c-0.53395,-0.0445 -0.85654,-0.24473 -0.96778,-0.60069c-0.11124,-0.35596 -0.12236,-0.76755 -0.03337,-1.23475c0.08899,-0.4672 0.2336,-0.92328 0.43383,-1.36824c0.20023,-0.44495 0.32259,-0.77867 0.36709,-1.00115c0,-0.0445 0.10011,-0.2781 0.30034,-0.7008c0.20023,-0.42271 0.42271,-0.88991 0.66743,-1.40161c0.24473,-0.5117 0.4672,-0.99002 0.66743,-1.43498c0.20023,-0.44495 0.30034,-0.71193 0.30034,-0.80092c0.35596,-0.48945 0.53395,-1.06789 0.53395,-1.73532c0.62294,-1.73532 1.40161,-3.75987 2.33601,-6.07363c0.9344,-2.31376 1.91331,-4.67202 2.9367,-7.07478c1.0234,-2.40276 2.02454,-4.72764 3.00344,-6.97467c0.9789,-2.24702 1.84656,-4.17145 2.60299,-5.77329l1.20138,-0.73418c0.62294,-0.08899 1.11239,0.05562 1.46835,0.43383c0.35596,0.37821 0.5117,0.87879 0.4672,1.50172c0,0.08899 -0.02225,0.15573 -0.06674,0.20023c-0.0445,0.0445 -0.08899,0.11124 -0.13349,0.20023c0,0.0445 -0.01112,0.08899 -0.03337,0.13349c-0.02225,0.0445 -0.03337,0.11124 -0.03337,0.20023v0.20023c0,0.13349 -0.02225,0.26697 -0.06674,0.40046c-0.0445,0.13349 -0.13349,0.24473 -0.26697,0.33372c-0.08899,0.48945 -0.20023,0.77867 -0.33372,0.86766c0,0.26697 -0.03337,0.47833 -0.10011,0.63406c-0.06674,0.15573 -0.14461,0.30034 -0.2336,0.43383c0.0445,0.0445 0.0445,0.11124 0,0.20023c-0.0445,0.08899 -0.02225,0.15573 0.06674,0.20023c-0.22248,0.22248 -0.37821,0.50057 -0.4672,0.83429c-0.08899,0.33372 -0.17798,0.67856 -0.26697,1.03452c-0.08899,0.08899 -0.14461,0.18911 -0.16686,0.30034c-0.02225,0.11124 -0.05562,0.21135 -0.10011,0.30034c-0.0445,0.17798 -0.05562,0.31147 -0.03337,0.40046c0.02225,0.08899 0.01112,0.17798 -0.03337,0.26697c-0.08899,0.22248 -0.17798,0.44495 -0.26697,0.66743c-0.08899,0.22248 -0.20023,0.44495 -0.33372,0.66743c-0.08899,0.22248 -0.18911,0.43383 -0.30034,0.63406c-0.11124,0.20023 -0.18911,0.38934 -0.2336,0.56732l-0.13349,0.66743c-0.0445,0.08899 -0.11124,0.15573 -0.20023,0.20023c-0.08899,0.0445 -0.15573,0.13349 -0.20023,0.26697c0,0.08899 -0.0445,0.26697 -0.13349,0.53395c-0.35596,0.80092 -0.77867,1.77982 -1.26812,2.9367c-0.48945,1.15688 -0.9789,2.36938 -1.46835,3.6375c-0.48945,1.26812 -0.95665,2.50287 -1.40161,3.70425c-0.44495,1.20138 -0.80092,2.22477 -1.06789,3.07019c0.71193,-0.44495 1.50172,-0.91216 2.36938,-1.40161c0.86766,-0.48945 1.7687,-0.9344 2.7031,-1.33486c0.9344,-0.40046 1.89106,-0.7453 2.86996,-1.03452c0.9789,-0.28922 1.93555,-0.47833 2.86996,-0.56732c0.0445,-0.17798 0.11124,-0.26697 0.20023,-0.26697c0.08899,0.22248 0.31147,0.31147 0.66743,0.26697c0.35596,-0.0445 0.66743,-0.0445 0.9344,0c1.11239,0.13349 1.98005,0.77867 2.60299,1.93555c0.13349,0.31147 0.21135,0.63406 0.2336,0.96778c0.02225,0.33372 0.03337,0.67856 0.03337,1.03452c-0.13349,0.13349 -0.20023,0.25585 -0.20023,0.36709c0,0.11124 -0.0445,0.25585 -0.13349,0.43383c-0.48945,1.29037 -1.26812,2.40276 -2.33601,3.33716c-1.06789,0.9344 -2.11353,1.86881 -3.13693,2.80321h-0.06674c-0.13349,0 -0.20023,0 -0.20023,0l-1.26812,0.9344c-0.08899,0 -0.13349,-0.02225 -0.13349,-0.06674c-0.22248,0.22248 -0.43383,0.40046 -0.63406,0.53395c-0.20023,0.13349 -0.43383,0.28922 -0.7008,0.4672c-0.08899,0.08899 -0.17798,0.17798 -0.26697,0.26697c-0.08899,0.08899 -0.17798,0.08899 -0.26697,0c-0.48945,0.35596 -1.01227,0.65631 -1.56847,0.90103c-0.55619,0.24473 -1.14576,0.47833 -1.7687,0.7008h-0.13349c-0.0445,0.08899 -0.13349,0.14461 -0.26697,0.16686c-0.13349,0.02225 -0.26697,0.05562 -0.40046,0.10011c-0.48945,0.35596 -0.95665,0.4672 -1.40161,0.33372c-0.08899,0.08899 -0.17798,0.12236 -0.26697,0.10011c-0.08899,-0.02225 -0.17798,-0.01112 -0.26697,0.03337v-0.06674c-0.08899,0 -0.18911,0 -0.30034,0c-0.11124,0 -0.18911,0.02225 -0.2336,0.06674v-0.06674c-0.17798,0.08899 -0.36709,0.07787 -0.56732,-0.03337c-0.20023,-0.11124 -0.38934,-0.10011 -0.56732,0.03337c-0.26697,-0.0445 -0.47833,-0.07787 -0.63406,-0.10011c-0.15573,-0.02225 -0.2781,-0.14461 -0.36709,-0.36709c-0.0445,-0.22248 0.03337,-0.4672 0.2336,-0.73418c0.20023,-0.26697 0.34484,-0.44495 0.43383,-0.53395c0.17798,0 0.30034,-0.05562 0.36709,-0.16686c0.06674,-0.11124 0.14461,-0.14461 0.2336,-0.10011z" data-paper-data="{&quot;glyphName&quot;:&quot;b&quot;,&quot;glyphIndex&quot;:2,&quot;word&quot;:1}"></path><path d="M220.78715,334.78448c-0.35596,0.22248 -0.7453,0.38934 -1.16801,0.50057c-0.42271,0.11124 -0.83429,0.2336 -1.23475,0.36709c-0.53395,0.13349 -1.13463,0.26697 -1.80207,0.40046c-0.66743,0.13349 -1.33486,0.18911 -2.0023,0.16686c-0.66743,-0.02225 -1.30149,-0.15573 -1.90218,-0.40046c-0.60069,-0.24473 -1.10126,-0.65631 -1.50172,-1.23475c-0.31147,-0.40046 -0.48945,-0.88991 -0.53395,-1.46835c-0.0445,-0.57844 0,-1.16801 0.13349,-1.7687c0.13349,-0.60069 0.32259,-1.20138 0.56732,-1.80207c0.24473,-0.60069 0.50057,-1.14576 0.76755,-1.63521c0.22248,-0.17798 0.40046,-0.40046 0.53395,-0.66743c0.13349,-0.26697 0.22248,-0.48945 0.26697,-0.66743c0.9344,-1.11239 1.90218,-2.18028 2.90333,-3.20367c1.00115,-1.0234 2.03567,-1.82431 3.10356,-2.40276c0.48945,-0.31147 1.00115,-0.57844 1.53509,-0.80092c0.53395,-0.22248 1.0234,-0.44495 1.46835,-0.66743c0.17798,-0.08899 0.32259,-0.17798 0.43383,-0.26697c0.11124,-0.08899 0.2781,-0.13349 0.50057,-0.13349c1.60184,0 2.64748,0.2781 3.13693,0.83429c0.48945,0.55619 0.73418,1.10126 0.73418,1.63521c-0.0445,0.17798 -0.20023,0.37821 -0.4672,0.60069c-0.26697,0.22248 -0.4672,0.44495 -0.60069,0.66743c-0.22248,0.22248 -0.42271,0.43383 -0.60069,0.63406c-0.17798,0.20023 -0.31147,0.38934 -0.40046,0.56732c-1.77982,1.55734 -3.55964,2.9367 -5.33946,4.13808c-0.44495,0.35596 -1.03452,0.60069 -1.7687,0.73418c-0.73418,0.13349 -1.47947,0.15573 -2.2359,0.06674c-0.26697,0.26697 -0.53395,0.61181 -0.80092,1.03452c-0.26697,0.42271 -0.47833,0.86766 -0.63406,1.33486c-0.15573,0.4672 -0.22248,0.9344 -0.20023,1.40161c0.02225,0.4672 0.21135,0.85654 0.56732,1.16801c0.88991,0.08899 1.66858,0 2.33601,-0.26697c0.66743,-0.26697 1.31262,-0.48945 1.93555,-0.66743c0.48945,-0.13349 1.00115,-0.28922 1.53509,-0.4672c0.53395,-0.17798 1.00115,-0.35596 1.40161,-0.53395c0.9344,-0.44495 1.70195,-0.81204 2.30264,-1.10126c0.60069,-0.28922 1.16801,-0.56732 1.70195,-0.83429c0.53395,-0.26697 1.09014,-0.55619 1.66858,-0.86766c0.57844,-0.31147 1.31262,-0.71193 2.20253,-1.20138c0.71193,-0.35596 1.43498,-0.72305 2.16915,-1.10126c0.73418,-0.37821 1.43498,-0.7453 2.10241,-1.10126c0.26697,-0.22248 0.5117,-0.38934 0.73418,-0.50057c0.22248,-0.11124 0.5117,-0.21135 0.86766,-0.30034c0.0445,0 0.10011,-0.02225 0.16686,-0.06674c0.06674,-0.0445 0.12236,-0.06674 0.16686,-0.06674c0.40046,0 0.60069,0.06674 0.60069,0.20023c0,0.13349 -0.10011,0.32259 -0.30034,0.56732c-0.20023,0.24473 -0.44495,0.50057 -0.73418,0.76755c-0.28922,0.26697 -0.52282,0.53395 -0.7008,0.80092c0.0445,0 -0.01112,0.05562 -0.16686,0.16686c-0.15573,0.11124 -0.33372,0.22248 -0.53395,0.33372c-0.20023,0.11124 -0.37821,0.22248 -0.53395,0.33372c-0.15573,0.11124 -0.2336,0.16686 -0.2336,0.16686c-0.48945,0.35596 -1.09014,0.7453 -1.80207,1.16801c-0.71193,0.42271 -1.42386,0.84541 -2.13578,1.26812c-0.71193,0.42271 -1.37936,0.81204 -2.0023,1.16801c-0.62294,0.35596 -1.09014,0.60069 -1.40161,0.73418zM215.98164,327.90993c0.40046,0 0.78979,-0.11124 1.16801,-0.33372c0.37821,-0.22248 0.7453,-0.44495 1.10126,-0.66743c0.88991,-0.71193 1.80207,-1.50172 2.73647,-2.36938c0.9344,-0.86766 1.77982,-1.74645 2.53624,-2.63636c0.08899,0 0.13349,-0.06674 0.13349,-0.20023c-1.60184,0.57844 -3.01457,1.42386 -4.23819,2.53624c-1.22363,1.11239 -2.36938,2.33601 -3.43728,3.67088z" data-paper-data="{&quot;glyphName&quot;:&quot;e&quot;,&quot;glyphIndex&quot;:3,&quot;word&quot;:1}"></path><path d="M235.5374,329.37828c0.31147,-0.0445 0.57844,-0.18911 0.80092,-0.43383c0.22248,-0.24473 0.4672,-0.45608 0.73418,-0.63406c1.15688,-1.0234 2.26927,-2.04679 3.33716,-3.07019c1.06789,-1.0234 2.31376,-1.9578 3.73762,-2.80321c0.48945,-0.31147 1.04564,-0.64518 1.66858,-1.00115c0.62294,-0.35596 1.24587,-0.55619 1.86881,-0.60069c0.44495,0 0.92328,0.16686 1.43498,0.50057c0.5117,0.33372 0.78979,0.7008 0.83429,1.10126c0.0445,0.48945 -0.01112,1.00115 -0.16686,1.53509c-0.15573,0.53395 -0.30034,1.04564 -0.43383,1.53509c-0.0445,0.35596 -0.14461,0.9344 -0.30034,1.73532c-0.15573,0.80092 -0.31147,1.64633 -0.4672,2.53624c-0.15573,0.88991 -0.2781,1.73532 -0.36709,2.53624c-0.08899,0.80092 -0.11124,1.37936 -0.06674,1.73532c0.40046,-0.17798 0.75642,-0.33372 1.06789,-0.4672c0.31147,-0.13349 0.68968,-0.31147 1.13463,-0.53395c0.48945,-0.22248 0.78979,-0.35596 0.90103,-0.40046c0.11124,-0.0445 0.18911,-0.07787 0.2336,-0.10011c0.0445,-0.02225 0.11124,-0.06674 0.20023,-0.13349c0.08899,-0.06674 0.37821,-0.2336 0.86766,-0.50057c0.31147,-0.26697 0.62294,-0.52282 0.9344,-0.76755c0.31147,-0.24473 0.62294,-0.43383 0.9344,-0.56732c0.17798,-0.08899 0.42271,-0.13349 0.73418,-0.13349c0.35596,-0.22248 0.7008,-0.42271 1.03452,-0.60069c0.33372,-0.17798 0.61181,-0.37821 0.83429,-0.60069c0.40046,0.17798 0.60069,0.34484 0.60069,0.50057c0,0.15573 -0.0445,0.34484 -0.13349,0.56732c-0.31147,0.40046 -0.75642,0.75642 -1.33486,1.06789c-0.26697,0.31147 -0.48945,0.55619 -0.66743,0.73418c-0.17798,0.17798 -0.42271,0.33372 -0.73418,0.4672c-0.48945,0.40046 -0.80092,0.65631 -0.9344,0.76755c-0.13349,0.11124 -0.2336,0.20023 -0.30034,0.26697c-0.06674,0.06674 -0.17798,0.14461 -0.33372,0.2336c-0.15573,0.08899 -0.50057,0.31147 -1.03452,0.66743c-0.48945,0.26697 -1.03452,0.61181 -1.63521,1.03452c-0.60069,0.42271 -1.16801,0.72305 -1.70195,0.90103c-0.44495,0.08899 -0.85654,0.15573 -1.23475,0.20023c-0.37821,0.0445 -0.72305,0.06674 -1.03452,0.06674c-0.48945,0.08899 -0.92328,-0.16686 -1.30149,-0.76755c-0.37821,-0.60069 -0.56732,-1.14576 -0.56732,-1.63521c0,-0.22248 0.06674,-0.67856 0.20023,-1.36824c0.13349,-0.68968 0.2781,-1.42386 0.43383,-2.20253c0.15573,-0.77867 0.31147,-1.52397 0.4672,-2.2359c0.15573,-0.71193 0.25585,-1.20138 0.30034,-1.46835c0.0445,-0.62294 0.13349,-1.17913 0.26697,-1.66858c0.13349,-0.48945 0.24473,-0.9789 0.33372,-1.46835c-0.35596,0.08899 -0.66743,0.24473 -0.9344,0.4672c-0.26697,0.22248 -0.53395,0.44495 -0.80092,0.66743c-0.80092,0.62294 -1.57959,1.24587 -2.33601,1.86881c-0.75642,0.62294 -1.51285,1.31262 -2.26927,2.06904c-0.44495,0.40046 -0.9344,0.80092 -1.46835,1.20138c-0.53395,0.40046 -1.04564,0.84541 -1.53509,1.33486c-1.51285,1.60184 -2.73647,2.9367 -3.67088,4.00459c-0.9344,1.06789 -1.62408,1.64633 -2.06904,1.73532c-0.35596,0.08899 -0.76755,0 -1.23475,-0.26697c-0.4672,-0.26697 -0.7453,-0.57844 -0.83429,-0.9344c-0.0445,-0.17798 -0.01112,-0.44495 0.10011,-0.80092c0.11124,-0.35596 0.2336,-0.68968 0.36709,-1.00115c0.40046,-1.86881 0.95665,-3.54851 1.66858,-5.03911c0.71193,-1.4906 1.37936,-3.03682 2.0023,-4.63865c0.08899,-0.22248 0.22248,-0.4672 0.40046,-0.73418c0.17798,-0.26697 0.31147,-0.5117 0.40046,-0.73418c0.08899,-0.31147 0.15573,-0.61181 0.20023,-0.90103c0.0445,-0.28922 0.08899,-0.54507 0.13349,-0.76755c0.08899,-0.08899 0.18911,-0.21135 0.30034,-0.36709c0.11124,-0.15573 0.2336,-0.2781 0.36709,-0.36709c0.48945,-0.35596 1.03452,-0.44495 1.63521,-0.26697c0.60069,0.17798 0.94553,0.48945 1.03452,0.9344c0.22248,0.53395 0.22248,1.00115 0,1.40161c-0.22248,0.40046 -0.44495,0.77867 -0.66743,1.13463c-0.08899,0.26697 -0.13349,0.53395 -0.13349,0.80092c0,0.26697 -0.0445,0.5117 -0.13349,0.73418c-0.26697,0.62294 -0.54507,1.24587 -0.83429,1.86881c-0.28922,0.62294 -0.56732,1.31262 -0.83429,2.06904z" data-paper-data="{&quot;glyphName&quot;:&quot;n&quot;,&quot;glyphIndex&quot;:4,&quot;lastGlyphOfWord&quot;:true,&quot;word&quot;:1}"></path><path d="M305.818,342.05949c-0.08899,0.13349 -0.26697,0.28922 -0.53395,0.4672c-0.26697,0.17798 -0.4672,0.26697 -0.60069,0.26697c-0.22248,0.31147 -0.50057,0.48945 -0.83429,0.53395c-0.33372,0.0445 -0.56732,0.22248 -0.7008,0.53395c-0.0445,0 -0.06674,-0.01112 -0.06674,-0.03337c0,-0.02225 -0.0445,-0.03337 -0.13349,-0.03337c-0.26697,0.13349 -0.61181,0.35596 -1.03452,0.66743c-0.42271,0.31147 -0.85654,0.61181 -1.30149,0.90103c-0.44495,0.28922 -0.85654,0.55619 -1.23475,0.80092c-0.37821,0.24473 -0.63406,0.36709 -0.76755,0.36709c-0.08899,0.17798 -0.24473,0.31147 -0.4672,0.40046c-0.22248,0.08899 -0.42271,0.17798 -0.60069,0.26697c-0.31147,0.17798 -0.62294,0.36709 -0.9344,0.56732c-0.31147,0.20023 -0.64518,0.36709 -1.00115,0.50057c-0.44495,0.40046 -0.95665,0.68968 -1.53509,0.86766c-4.62753,2.9367 -8.68774,4.76102 -12.18064,5.47294c-3.49289,0.71193 -6.26274,0.45608 -8.30953,-0.76755c-2.04679,-1.22363 -3.32604,-3.34828 -3.83773,-6.37398c-0.5117,-3.02569 -0.12236,-6.83005 1.16801,-11.41309c0,-0.13349 -0.02225,-0.20023 -0.06674,-0.20023c0.13349,-0.13349 0.18911,-0.28922 0.16686,-0.4672c-0.02225,-0.17798 0.05562,-0.31147 0.2336,-0.40046c-0.08899,-0.22248 -0.06674,-0.38934 0.06674,-0.50057c0.13349,-0.11124 0.20023,-0.2781 0.20023,-0.50057c0.0445,-0.0445 0.14461,-0.22248 0.30034,-0.53395c0.15573,-0.31147 0.30034,-0.65631 0.43383,-1.03452c0.13349,-0.37821 0.26697,-0.73418 0.40046,-1.06789c0.13349,-0.33372 0.20023,-0.54507 0.20023,-0.63406c0.48945,-0.62294 0.88991,-1.30149 1.20138,-2.03567c0.31147,-0.73418 0.66743,-1.36824 1.06789,-1.90218v-0.26697c0.31147,-0.9344 0.95665,-2.21365 1.93555,-3.83773c0.9789,-1.62408 2.20253,-3.4039 3.67088,-5.33946c1.46835,-1.93555 3.12581,-3.94897 4.97237,-6.04026c1.84656,-2.09129 3.77099,-4.08246 5.77329,-5.97352c2.0023,-1.89106 4.01572,-3.59301 6.04026,-5.10586c2.02454,-1.51285 3.97122,-2.66973 5.84003,-3.47065c1.86881,-0.80092 3.59301,-1.14576 5.1726,-1.03452c1.57959,0.11124 2.92558,0.83429 4.03796,2.16915c0.31147,0.26697 0.57844,0.64518 0.80092,1.13463c0.22248,0.48945 0.41158,1.0234 0.56732,1.60184c0.15573,0.57844 0.25585,1.14576 0.30034,1.70195c0.0445,0.55619 0.0445,1.03452 0,1.43498c0,0.22248 -0.06674,0.54507 -0.20023,0.96778c-0.13349,0.42271 -0.24473,0.7453 -0.33372,0.96778c-0.08899,0.26697 -0.20023,0.52282 -0.33372,0.76755c-0.13349,0.24473 -0.24473,0.47833 -0.33372,0.7008c-0.31147,0.75642 -0.55619,1.29037 -0.73418,1.60184c-0.08899,0.08899 -0.20023,0.14461 -0.33372,0.16686c-0.13349,0.02225 -0.15573,0.07787 -0.06674,0.16686c-0.22248,0 -0.36709,0.0445 -0.43383,0.13349c-0.06674,0.08899 -0.14461,0.15573 -0.2336,0.20023c-0.17798,0.0445 -0.33372,0.0445 -0.4672,0c-0.13349,-0.0445 -0.26697,-0.0445 -0.40046,0c-0.88991,-0.35596 -1.4906,-0.91216 -1.80207,-1.66858c-0.22248,-0.53395 -0.18911,-1.00115 0.10011,-1.40161c0.28922,-0.40046 0.52282,-0.77867 0.7008,-1.13463c0.08899,-0.22248 0.14461,-0.42271 0.16686,-0.60069c0.02225,-0.17798 0.07787,-0.37821 0.16686,-0.60069c0.22248,-0.57844 0.40046,-1.15688 0.53395,-1.73532c0.13349,-0.57844 0.17798,-1.11239 0.13349,-1.60184c0,-0.48945 -0.21135,-0.85654 -0.63406,-1.10126c-0.42271,-0.24473 -0.94553,-0.30034 -1.56847,-0.16686c-0.62294,0.13349 -1.20138,0.31147 -1.73532,0.53395c-0.53395,0.22248 -1.05677,0.4672 -1.56847,0.73418c-0.5117,0.26697 -1.01227,0.53395 -1.50172,0.80092c-0.48945,0.26697 -1.0234,0.5117 -1.60184,0.73418c-0.13349,0.26697 -0.31147,0.44495 -0.53395,0.53395c-0.22248,0.08899 -0.44495,0.22248 -0.66743,0.40046c-0.22248,0.08899 -0.45608,0.24473 -0.7008,0.4672c-0.24473,0.22248 -0.50057,0.40046 -0.76755,0.53395c-0.08899,0.08899 -0.18911,0.14461 -0.30034,0.16686c-0.11124,0.02225 -0.21135,0.07787 -0.30034,0.16686c-0.75642,0.66743 -1.55734,1.33486 -2.40276,2.0023c-0.22248,0.22248 -0.4672,0.41158 -0.73418,0.56732c-0.26697,0.15573 -0.5117,0.34484 -0.73418,0.56732c-0.17798,0.26697 -0.41158,0.5117 -0.7008,0.73418c-0.28922,0.22248 -0.54507,0.44495 -0.76755,0.66743c-0.13349,0.08899 -0.22248,0.20023 -0.26697,0.33372c-0.0445,0.13349 -0.08899,0.24473 -0.13349,0.33372c-0.40046,0.35596 -0.80092,0.71193 -1.20138,1.06789c-0.40046,0.35596 -0.77867,0.73418 -1.13463,1.13463c-0.17798,0.13349 -0.33372,0.28922 -0.4672,0.4672c-0.13349,0.17798 -0.24473,0.35596 -0.33372,0.53395l-0.26697,0.13349c-0.0445,0.08899 -0.05562,0.15573 -0.03337,0.20023c0.02225,0.0445 0.01112,0.08899 -0.03337,0.13349c-0.26697,0.26697 -0.7008,0.77867 -1.30149,1.53509c-0.60069,0.75642 -1.23475,1.54622 -1.90218,2.36938c-0.66743,0.82317 -1.29037,1.62408 -1.86881,2.40276c-0.57844,0.77867 -0.9789,1.34599 -1.20138,1.70195c-0.08899,0.17798 -0.16686,0.34484 -0.2336,0.50057c-0.06674,0.15573 -0.16686,0.2781 -0.30034,0.36709c-0.75642,1.11239 -1.46835,2.24702 -2.13578,3.4039c-0.66743,1.15688 -1.31262,2.33601 -1.93555,3.53739c-0.26697,0.31147 -0.45608,0.63406 -0.56732,0.96778c-0.11124,0.33372 -0.2781,0.61181 -0.50057,0.83429h0.13349c-0.08899,0.0445 -0.14461,0.11124 -0.16686,0.20023c-0.02225,0.08899 -0.07787,0.11124 -0.16686,0.06674c0.08899,0.22248 0.06674,0.36709 -0.06674,0.43383c-0.13349,0.06674 -0.15573,0.18911 -0.06674,0.36709c-0.35596,0.48945 -0.61181,0.9789 -0.76755,1.46835c-0.15573,0.48945 -0.41158,1.0234 -0.76755,1.60184c-0.13349,0.66743 -0.34484,1.30149 -0.63406,1.90218c-0.28922,0.60069 -0.47833,1.27924 -0.56732,2.03567c-0.13349,0.17798 -0.20023,0.35596 -0.20023,0.53395c0,0.17798 -0.0445,0.37821 -0.13349,0.60069c-0.22248,0.9789 -0.41158,1.94668 -0.56732,2.90333c-0.15573,0.95665 -0.18911,2.03567 -0.10011,3.23705c0,0.88991 0.2336,1.79094 0.7008,2.7031c0.4672,0.91216 1.01227,1.56847 1.63521,1.96892c0.53395,0.35596 1.27924,0.48945 2.2359,0.40046c0.95665,-0.08899 1.74645,-0.22248 2.36938,-0.40046c0.53395,-0.17798 1.10126,-0.32259 1.70195,-0.43383c0.60069,-0.11124 1.16801,-0.25585 1.70195,-0.43383c1.24587,-0.48945 2.45837,-1.04564 3.6375,-1.66858c1.17913,-0.62294 2.34714,-1.20138 3.50402,-1.73532c0.26697,-0.17798 0.57844,-0.34484 0.9344,-0.50057c0.35596,-0.15573 0.71193,-0.32259 1.06789,-0.50057c0.22248,-0.22248 0.54507,-0.40046 0.96778,-0.53395c0.42271,-0.13349 0.7453,-0.35596 0.96778,-0.66743h0.13349l13.34864,-7.80896c2.53624,-1.46835 4.86113,-2.78097 6.97467,-3.93785c2.11353,-1.15688 3.9156,-2.09129 5.4062,-2.80321c1.4906,-0.71193 2.58074,-1.15688 3.27042,-1.33486c0.68968,-0.17798 0.87879,-0.0445 0.56732,0.40046c-0.31147,0.44495 -1.20138,1.22363 -2.66973,2.33601c-1.46835,1.11239 -3.62638,2.62523 -6.47409,4.53854c0,0.13349 -0.22248,0.33372 -0.66743,0.60069c-0.44495,0.26697 -0.82317,0.48945 -1.13463,0.66743c0.0445,0 0.07787,-0.01112 0.10011,-0.03337c0.02225,-0.02225 0.05562,-0.03337 0.10011,-0.03337c-0.48945,0.26697 -1.10126,0.64518 -1.83544,1.13463c-0.73418,0.48945 -1.47947,0.99002 -2.2359,1.50172c-0.75642,0.5117 -1.47947,0.9789 -2.16915,1.40161c-0.68968,0.42271 -1.2125,0.72305 -1.56847,0.90103z" data-paper-data="{&quot;glyphName&quot;:&quot;C&quot;,&quot;glyphIndex&quot;:5,&quot;firstGlyphOfWord&quot;:true,&quot;word&quot;:2}"></path><path d="M336.31965,326.17461c0.0445,0.31147 0.02225,0.65631 -0.06674,1.03452c-0.08899,0.37821 -0.22248,0.67856 -0.40046,0.90103c-0.08899,0.22248 -0.20023,0.5117 -0.33372,0.86766c-0.13349,0.35596 -0.28922,0.66743 -0.4672,0.9344c-0.35596,0.31147 -0.67856,0.76755 -0.96778,1.36824c-0.28922,0.60069 -0.61181,1.01227 -0.96778,1.23475c0,0 -0.22248,0.2336 -0.66743,0.7008c-0.44495,0.4672 -0.9789,0.95665 -1.60184,1.46835c-0.62294,0.5117 -1.27924,0.96778 -1.96892,1.36824c-0.68968,0.40046 -1.27924,0.55619 -1.7687,0.4672c-0.71193,0.26697 -1.40161,0.36709 -2.06904,0.30034c-0.66743,-0.06674 -1.26812,-0.24473 -1.80207,-0.53395c-0.53395,-0.28922 -0.9789,-0.68968 -1.33486,-1.20138c-0.35596,-0.5117 -0.57844,-1.10126 -0.66743,-1.7687c-0.0445,-0.08899 -0.06674,-0.25585 -0.06674,-0.50057c0,-0.24473 0.06674,-0.41158 0.20023,-0.50057c-0.13349,-0.31147 -0.12236,-0.64518 0.03337,-1.00115c0.15573,-0.35596 0.2336,-0.66743 0.2336,-0.9344l1.20138,-3.4039c0.13349,-0.0445 0.21135,-0.12236 0.2336,-0.2336c0.02225,-0.11124 0.07787,-0.16686 0.16686,-0.16686c0.26697,-0.62294 0.63406,-1.24587 1.10126,-1.86881c0.4672,-0.62294 0.94553,-1.20138 1.43498,-1.73532c0.26697,-0.35596 0.56732,-0.73418 0.90103,-1.13463c0.33372,-0.40046 0.68968,-0.75642 1.06789,-1.06789c0.37821,-0.31147 0.76755,-0.5117 1.16801,-0.60069c0.40046,-0.08899 0.77867,0.02225 1.13463,0.33372c0.44495,0.08899 0.82317,0.22248 1.13463,0.40046c0.0445,0.08899 0.10011,0.08899 0.16686,0c0.06674,-0.08899 0.14461,-0.11124 0.2336,-0.06674c0.08899,-0.0445 0.25585,-0.0445 0.50057,0c0.24473,0.0445 0.50057,0.11124 0.76755,0.20023c0.26697,0.08899 0.5117,0.17798 0.73418,0.26697c0.22248,0.08899 0.37821,0.17798 0.4672,0.26697l0.66743,0.9344c0.53395,-0.13349 1.36824,-0.28922 2.50287,-0.4672c1.13463,-0.17798 2.32489,-0.32259 3.57076,-0.43383c1.24587,-0.11124 2.40276,-0.15573 3.47065,-0.13349c1.06789,0.02225 1.84656,0.18911 2.33601,0.50057c0.0445,0.0445 0.10011,0.06674 0.16686,0.06674c0.06674,0 0.12236,0.02225 0.16686,0.06674c0.0445,0.0445 0.08899,0.06674 0.13349,0.06674c0.26697,-0.0445 0.41158,-0.02225 0.43383,0.06674c0.02225,0.08899 0.12236,0.13349 0.30034,0.13349c0.22248,0.17798 0.26697,0.36709 0.13349,0.56732c-0.13349,0.20023 -0.28922,0.34484 -0.4672,0.43383c-0.48945,0.0445 -0.78979,0.11124 -0.90103,0.20023c-0.11124,0.08899 -0.22248,0.16686 -0.33372,0.2336c-0.11124,0.06674 -0.30034,0.11124 -0.56732,0.13349c-0.26697,0.02225 -0.77867,0.03337 -1.53509,0.03337c-0.62294,0 -1.27924,0.0445 -1.96892,0.13349c-0.68968,0.08899 -1.39048,0.22248 -2.10241,0.40046c-0.71193,0.17798 -1.39048,0.34484 -2.03567,0.50057c-0.64518,0.15573 -1.19025,0.30034 -1.63521,0.43383c-0.0445,0.17798 -0.06674,0.32259 -0.06674,0.43383c0,0.11124 0,0.21135 0,0.30034zM331.51413,322.97093c-0.22248,-0.08899 -0.44495,-0.13349 -0.66743,-0.13349c-0.22248,0 -0.42271,-0.08899 -0.60069,-0.26697l-0.20023,0.20023c-0.26697,0.22248 -0.47833,0.48945 -0.63406,0.80092c-0.15573,0.31147 -0.34484,0.64518 -0.56732,1.00115c-0.22248,0.26697 -0.5117,0.66743 -0.86766,1.20138c-0.35596,0.53395 -0.71193,1.10126 -1.06789,1.70195c-0.35596,0.60069 -0.67856,1.17913 -0.96778,1.73532c-0.28922,0.55619 -0.45608,0.99002 -0.50057,1.30149c-0.13349,0.57844 -0.31147,1.20138 -0.53395,1.86881c-0.22248,0.66743 -0.17798,1.31262 0.13349,1.93555c0.9789,-0.35596 1.83544,-0.80092 2.56961,-1.33486c0.73418,-0.53395 1.41273,-1.13463 2.03567,-1.80207l0.40046,-0.4672c0.17798,-0.31147 0.5117,-0.88991 1.00115,-1.73532c0.48945,-0.84541 0.90103,-1.71308 1.23475,-2.60299c0.33372,-0.88991 0.48945,-1.6797 0.4672,-2.36938c-0.02225,-0.68968 -0.43383,-1.03452 -1.23475,-1.03452z" data-paper-data="{&quot;glyphName&quot;:&quot;o&quot;,&quot;glyphIndex&quot;:6,&quot;word&quot;:2}"></path><path d="M359.81325,321.10212c-0.08899,0.13349 -0.12236,0.24473 -0.10011,0.33372c0.02225,0.08899 -0.05562,0.17798 -0.2336,0.26697c0,0.08899 -0.06674,0.13349 -0.20023,0.13349c-0.08899,0.22248 -0.25585,0.35596 -0.50057,0.40046c-0.24473,0.0445 -0.45608,0.17798 -0.63406,0.40046c-0.88991,0.26697 -1.82431,0.60069 -2.80321,1.00115c-0.9789,0.40046 -1.92443,0.83429 -2.83659,1.30149c-0.91216,0.4672 -1.74645,0.94553 -2.50287,1.43498c-0.75642,0.48945 -1.33486,0.9789 -1.73532,1.46835c-0.35596,0.35596 -0.73418,0.73418 -1.13463,1.13463c-0.40046,0.40046 -0.75642,0.84541 -1.06789,1.33486c-0.13349,0.35596 -0.2781,0.80092 -0.43383,1.33486c-0.15573,0.53395 -0.30034,1.05677 -0.43383,1.56847c-0.13349,0.5117 -0.2781,0.96778 -0.43383,1.36824c-0.15573,0.40046 -0.30034,0.64518 -0.43383,0.73418c-0.08899,0.17798 -0.26697,0.42271 -0.53395,0.73418c-0.26697,0.31147 -0.48945,0.44495 -0.66743,0.40046c-0.66743,0.31147 -1.23475,0.26697 -1.70195,-0.13349c-0.4672,-0.40046 -0.63406,-0.95665 -0.50057,-1.66858c0.08899,-0.44495 0.28922,-1.11239 0.60069,-2.0023c0.31147,-0.88991 0.5117,-1.57959 0.60069,-2.06904c0,0 0,-0.02225 0,-0.06674c0.0445,-0.13349 0.06674,-0.26697 0.06674,-0.40046c0.35596,-0.62294 0.64518,-1.26812 0.86766,-1.93555c0.22248,-0.66743 0.48945,-1.31262 0.80092,-1.93555c0,-0.0445 0.03337,-0.07787 0.10011,-0.10011c0.06674,-0.02225 0.10011,-0.05562 0.10011,-0.10011c0.22248,-0.88991 0.50057,-1.7687 0.83429,-2.63636c0.33372,-0.86766 0.63406,-1.70195 0.90103,-2.50287c0.0445,-0.17798 0.11124,-0.31147 0.20023,-0.40046c0.08899,-0.08899 0.17798,-0.20023 0.26697,-0.33372c0.22248,-0.08899 0.41158,-0.17798 0.56732,-0.26697c0.15573,-0.08899 0.32259,-0.13349 0.50057,-0.13349c0.08899,-0.08899 0.20023,-0.13349 0.33372,-0.13349c0.08899,0 0.18911,0.01112 0.30034,0.03337c0.11124,0.02225 0.21135,0.03337 0.30034,0.03337c0.40046,0.0445 0.68968,0.20023 0.86766,0.4672c0.53395,0.71193 0.48945,1.37936 -0.13349,2.0023c-0.0445,0.35596 -0.12236,0.71193 -0.2336,1.06789c-0.11124,0.35596 -0.18911,0.66743 -0.2336,0.9344c1.55734,-1.15688 3.09244,-1.9578 4.60528,-2.40276c1.51285,-0.44495 2.91445,-0.71193 4.20482,-0.80092c0.35596,-0.0445 0.76755,-0.08899 1.23475,-0.13349c0.4672,-0.0445 0.87879,0.0445 1.23475,0.26697z" data-paper-data="{&quot;glyphName&quot;:&quot;r&quot;,&quot;glyphIndex&quot;:7,&quot;word&quot;:2}"></path><path d="M375.36442,321.10212c-0.08899,0.13349 -0.12236,0.24473 -0.10011,0.33372c0.02225,0.08899 -0.05562,0.17798 -0.2336,0.26697c0,0.08899 -0.06674,0.13349 -0.20023,0.13349c-0.08899,0.22248 -0.25585,0.35596 -0.50057,0.40046c-0.24473,0.0445 -0.45608,0.17798 -0.63406,0.40046c-0.88991,0.26697 -1.82431,0.60069 -2.80321,1.00115c-0.9789,0.40046 -1.92443,0.83429 -2.83659,1.30149c-0.91216,0.4672 -1.74645,0.94553 -2.50287,1.43498c-0.75642,0.48945 -1.33486,0.9789 -1.73532,1.46835c-0.35596,0.35596 -0.73418,0.73418 -1.13463,1.13463c-0.40046,0.40046 -0.75642,0.84541 -1.06789,1.33486c-0.13349,0.35596 -0.2781,0.80092 -0.43383,1.33486c-0.15573,0.53395 -0.30034,1.05677 -0.43383,1.56847c-0.13349,0.5117 -0.2781,0.96778 -0.43383,1.36824c-0.15573,0.40046 -0.30034,0.64518 -0.43383,0.73418c-0.08899,0.17798 -0.26697,0.42271 -0.53395,0.73418c-0.26697,0.31147 -0.48945,0.44495 -0.66743,0.40046c-0.66743,0.31147 -1.23475,0.26697 -1.70195,-0.13349c-0.4672,-0.40046 -0.63406,-0.95665 -0.50057,-1.66858c0.08899,-0.44495 0.28922,-1.11239 0.60069,-2.0023c0.31147,-0.88991 0.5117,-1.57959 0.60069,-2.06904c0,0 0,-0.02225 0,-0.06674c0.0445,-0.13349 0.06674,-0.26697 0.06674,-0.40046c0.35596,-0.62294 0.64518,-1.26812 0.86766,-1.93555c0.22248,-0.66743 0.48945,-1.31262 0.80092,-1.93555c0,-0.0445 0.03337,-0.07787 0.10011,-0.10011c0.06674,-0.02225 0.10011,-0.05562 0.10011,-0.10011c0.22248,-0.88991 0.50057,-1.7687 0.83429,-2.63636c0.33372,-0.86766 0.63406,-1.70195 0.90103,-2.50287c0.0445,-0.17798 0.11124,-0.31147 0.20023,-0.40046c0.08899,-0.08899 0.17798,-0.20023 0.26697,-0.33372c0.22248,-0.08899 0.41158,-0.17798 0.56732,-0.26697c0.15573,-0.08899 0.32259,-0.13349 0.50057,-0.13349c0.08899,-0.08899 0.20023,-0.13349 0.33372,-0.13349c0.08899,0 0.18911,0.01112 0.30034,0.03337c0.11124,0.02225 0.21135,0.03337 0.30034,0.03337c0.40046,0.0445 0.68968,0.20023 0.86766,0.4672c0.53395,0.71193 0.48945,1.37936 -0.13349,2.0023c-0.0445,0.35596 -0.12236,0.71193 -0.2336,1.06789c-0.11124,0.35596 -0.18911,0.66743 -0.2336,0.9344c1.55734,-1.15688 3.09244,-1.9578 4.60528,-2.40276c1.51285,-0.44495 2.91445,-0.71193 4.20482,-0.80092c0.35596,-0.0445 0.76755,-0.08899 1.23475,-0.13349c0.4672,-0.0445 0.87879,0.0445 1.23475,0.26697z" data-paper-data="{&quot;glyphName&quot;:&quot;r&quot;,&quot;glyphIndex&quot;:8,&quot;word&quot;:2}"></path><path d="M382.03874,334.78448c-0.35596,0.22248 -0.7453,0.38934 -1.16801,0.50057c-0.42271,0.11124 -0.83429,0.2336 -1.23475,0.36709c-0.53395,0.13349 -1.13463,0.26697 -1.80207,0.40046c-0.66743,0.13349 -1.33486,0.18911 -2.0023,0.16686c-0.66743,-0.02225 -1.30149,-0.15573 -1.90218,-0.40046c-0.60069,-0.24473 -1.10126,-0.65631 -1.50172,-1.23475c-0.31147,-0.40046 -0.48945,-0.88991 -0.53395,-1.46835c-0.0445,-0.57844 0,-1.16801 0.13349,-1.7687c0.13349,-0.60069 0.32259,-1.20138 0.56732,-1.80207c0.24473,-0.60069 0.50057,-1.14576 0.76755,-1.63521c0.22248,-0.17798 0.40046,-0.40046 0.53395,-0.66743c0.13349,-0.26697 0.22248,-0.48945 0.26697,-0.66743c0.9344,-1.11239 1.90218,-2.18028 2.90333,-3.20367c1.00115,-1.0234 2.03567,-1.82431 3.10356,-2.40276c0.48945,-0.31147 1.00115,-0.57844 1.53509,-0.80092c0.53395,-0.22248 1.0234,-0.44495 1.46835,-0.66743c0.17798,-0.08899 0.32259,-0.17798 0.43383,-0.26697c0.11124,-0.08899 0.2781,-0.13349 0.50057,-0.13349c1.60184,0 2.64748,0.2781 3.13693,0.83429c0.48945,0.55619 0.73418,1.10126 0.73418,1.63521c-0.0445,0.17798 -0.20023,0.37821 -0.4672,0.60069c-0.26697,0.22248 -0.4672,0.44495 -0.60069,0.66743c-0.22248,0.22248 -0.42271,0.43383 -0.60069,0.63406c-0.17798,0.20023 -0.31147,0.38934 -0.40046,0.56732c-1.77982,1.55734 -3.55964,2.9367 -5.33946,4.13808c-0.44495,0.35596 -1.03452,0.60069 -1.7687,0.73418c-0.73418,0.13349 -1.47947,0.15573 -2.2359,0.06674c-0.26697,0.26697 -0.53395,0.61181 -0.80092,1.03452c-0.26697,0.42271 -0.47833,0.86766 -0.63406,1.33486c-0.15573,0.4672 -0.22248,0.9344 -0.20023,1.40161c0.02225,0.4672 0.21135,0.85654 0.56732,1.16801c0.88991,0.08899 1.66858,0 2.33601,-0.26697c0.66743,-0.26697 1.31262,-0.48945 1.93555,-0.66743c0.48945,-0.13349 1.00115,-0.28922 1.53509,-0.4672c0.53395,-0.17798 1.00115,-0.35596 1.40161,-0.53395c0.9344,-0.44495 1.70195,-0.81204 2.30264,-1.10126c0.60069,-0.28922 1.16801,-0.56732 1.70195,-0.83429c0.53395,-0.26697 1.09014,-0.55619 1.66858,-0.86766c0.57844,-0.31147 1.31262,-0.71193 2.20253,-1.20138c0.71193,-0.35596 1.43498,-0.72305 2.16915,-1.10126c0.73418,-0.37821 1.43498,-0.7453 2.10241,-1.10126c0.26697,-0.22248 0.5117,-0.38934 0.73418,-0.50057c0.22248,-0.11124 0.5117,-0.21135 0.86766,-0.30034c0.0445,0 0.10011,-0.02225 0.16686,-0.06674c0.06674,-0.0445 0.12236,-0.06674 0.16686,-0.06674c0.40046,0 0.60069,0.06674 0.60069,0.20023c0,0.13349 -0.10011,0.32259 -0.30034,0.56732c-0.20023,0.24473 -0.44495,0.50057 -0.73418,0.76755c-0.28922,0.26697 -0.52282,0.53395 -0.7008,0.80092c0.0445,0 -0.01112,0.05562 -0.16686,0.16686c-0.15573,0.11124 -0.33372,0.22248 -0.53395,0.33372c-0.20023,0.11124 -0.37821,0.22248 -0.53395,0.33372c-0.15573,0.11124 -0.2336,0.16686 -0.2336,0.16686c-0.48945,0.35596 -1.09014,0.7453 -1.80207,1.16801c-0.71193,0.42271 -1.42386,0.84541 -2.13578,1.26812c-0.71193,0.42271 -1.37936,0.81204 -2.0023,1.16801c-0.62294,0.35596 -1.09014,0.60069 -1.40161,0.73418zM377.23323,327.90993c0.40046,0 0.78979,-0.11124 1.16801,-0.33372c0.37821,-0.22248 0.7453,-0.44495 1.10126,-0.66743c0.88991,-0.71193 1.80207,-1.50172 2.73647,-2.36938c0.9344,-0.86766 1.77982,-1.74645 2.53624,-2.63636c0.08899,0 0.13349,-0.06674 0.13349,-0.20023c-1.60184,0.57844 -3.01457,1.42386 -4.23819,2.53624c-1.22363,1.11239 -2.36938,2.33601 -3.43728,3.67088z" data-paper-data="{&quot;glyphName&quot;:&quot;e&quot;,&quot;glyphIndex&quot;:9,&quot;word&quot;:2}"></path><path d="M403.26308,331.91452c0.9344,-0.35596 1.63521,-0.62294 2.10241,-0.80092c0.4672,-0.17798 0.82317,-0.31147 1.06789,-0.40046c0.24473,-0.08899 0.42271,-0.16686 0.53395,-0.2336c0.11124,-0.06674 0.25585,-0.13349 0.43383,-0.20023c0.17798,-0.06674 0.45608,-0.15573 0.83429,-0.26697c0.37821,-0.11124 0.96778,-0.30034 1.7687,-0.56732c0.35596,-0.22248 0.7453,-0.43383 1.16801,-0.63406c0.42271,-0.20023 0.85654,-0.36709 1.30149,-0.50057c0.0445,-0.0445 0.15573,-0.06674 0.33372,-0.06674c0.17798,0 0.31147,0 0.40046,0c0.48945,-0.17798 0.77867,-0.22248 0.86766,-0.13349c0.17798,0.08899 0.22248,0.15573 0.13349,0.20023c-0.08899,0.0445 -0.13349,0.11124 -0.13349,0.20023c0,0.08899 0.01112,0.15573 0.03337,0.20023c0.02225,0.0445 -0.10011,0.13349 -0.36709,0.26697c-0.0445,0.13349 -0.12236,0.22248 -0.2336,0.26697c-0.11124,0.0445 -0.2781,0.11124 -0.50057,0.20023c-0.31147,0 -0.5117,0.15573 -0.60069,0.4672c-0.17798,0.08899 -0.40046,0.22248 -0.66743,0.40046c-0.26697,0.17798 -0.54507,0.37821 -0.83429,0.60069c-0.28922,0.22248 -0.56732,0.42271 -0.83429,0.60069c-0.26697,0.17798 -0.48945,0.28922 -0.66743,0.33372c-1.86881,0.88991 -3.682,1.69083 -5.43957,2.40276c-1.75757,0.71193 -3.57076,1.37936 -5.43957,2.0023c-0.26697,0.08899 -0.5117,0.16686 -0.73418,0.2336c-0.22248,0.06674 -0.5117,0.18911 -0.86766,0.36709c-0.13349,0 -0.30034,0.0445 -0.50057,0.13349c-0.20023,0.08899 -0.34484,0.11124 -0.43383,0.06674c-0.08899,0.0445 -0.14461,0.05562 -0.16686,0.03337c-0.02225,-0.02225 -0.07787,-0.03337 -0.16686,-0.03337c-0.57844,0.22248 -1.03452,0.28922 -1.36824,0.20023c-0.33372,-0.08899 -0.83429,-0.08899 -1.50172,0c-0.40046,0 -0.75642,-0.06674 -1.06789,-0.20023c-0.31147,-0.13349 -0.57844,-0.28922 -0.80092,-0.4672c-0.62294,-0.48945 -1.04564,-1.06789 -1.26812,-1.73532c-0.22248,-0.66743 -0.02225,-1.64633 0.60069,-2.9367c0.31147,-0.62294 0.67856,-1.2125 1.10126,-1.7687c0.42271,-0.55619 0.92328,-1.07902 1.50172,-1.56847c0.48945,-0.57844 0.88991,-0.99002 1.20138,-1.23475c0.31147,-0.24473 0.75642,-0.63406 1.33486,-1.16801c0.48945,-0.40046 1.01227,-0.85654 1.56847,-1.36824c0.55619,-0.5117 1.10126,-1.03452 1.63521,-1.56847c0.35596,-0.22248 0.62294,-0.43383 0.80092,-0.63406c0.17798,-0.20023 0.48945,-0.43383 0.9344,-0.7008c0.22248,-0.08899 0.38934,-0.15573 0.50057,-0.20023c0.11124,-0.0445 0.2781,-0.11124 0.50057,-0.20023c0.22248,-0.08899 0.40046,-0.22248 0.53395,-0.40046c0.13349,-0.17798 0.35596,-0.26697 0.66743,-0.26697c0.35596,-0.0445 0.95665,0.08899 1.80207,0.40046c0.17798,0.17798 0.31147,0.43383 0.40046,0.76755c0.08899,0.33372 0.12236,0.66743 0.10011,1.00115c-0.02225,0.33372 -0.07787,0.64518 -0.16686,0.9344c-0.08899,0.28922 -0.22248,0.47833 -0.40046,0.56732c-0.44495,0.22248 -0.76755,0.37821 -0.96778,0.4672c-0.20023,0.08899 -0.45608,0.28922 -0.76755,0.60069c-0.08899,0 -0.22248,0.03337 -0.40046,0.10011c-0.17798,0.06674 -0.31147,0.16686 -0.40046,0.30034c-0.13349,0 -0.30034,-0.01112 -0.50057,-0.03337c-0.20023,-0.02225 -0.34484,0.01112 -0.43383,0.10011c-0.08899,0.13349 -0.2336,0.22248 -0.43383,0.26697c-0.20023,0.0445 -0.41158,0.17798 -0.63406,0.40046l-1.06789,0.86766l-1.46835,1.13463c-0.35596,0.35596 -0.71193,0.68968 -1.06789,1.00115c-0.35596,0.31147 -0.64518,0.64518 -0.86766,1.00115c-0.35596,0.31147 -0.66743,0.71193 -0.9344,1.20138c-0.26697,0.48945 -0.48945,0.95665 -0.66743,1.40161c-0.26697,0.66743 -0.0445,1.01227 0.66743,1.03452c0.71193,0.02225 1.61296,-0.11124 2.7031,-0.40046c1.09014,-0.28922 2.2359,-0.64518 3.43728,-1.06789c1.20138,-0.42271 2.13578,-0.7453 2.80321,-0.96778z" data-paper-data="{&quot;glyphName&quot;:&quot;c&quot;,&quot;glyphIndex&quot;:10,&quot;word&quot;:2}"></path><path d="M411.33901,306.0849c-0.0445,-0.80092 0.06674,-1.59071 0.33372,-2.36938c0.26697,-0.77867 0.53395,-1.50172 0.80092,-2.16915l0.80092,-2.13578c0.13349,-0.31147 0.25585,-0.65631 0.36709,-1.03452c0.11124,-0.37821 0.2781,-0.67856 0.50057,-0.90103c0.08899,-0.22248 0.35596,-0.52282 0.80092,-0.90103c0.44495,-0.37821 0.84541,-0.52282 1.20138,-0.43383c0.26697,0.08899 0.42271,0.2781 0.4672,0.56732c0.0445,0.28922 0.01112,0.60069 -0.10011,0.9344c-0.11124,0.33372 -0.24473,0.65631 -0.40046,0.96778c-0.15573,0.31147 -0.25585,0.53395 -0.30034,0.66743c-0.35596,0.88991 -0.68968,1.65746 -1.00115,2.30264c-0.31147,0.64518 -0.64518,1.36824 -1.00115,2.16915c-0.22248,0.48945 -0.42271,0.94553 -0.60069,1.36824c-0.17798,0.42271 -0.44495,0.7453 -0.80092,0.96778c-0.22248,-0.0445 -0.41158,-0.02225 -0.56732,0.06674c-0.15573,0.08899 -0.32259,0.06674 -0.50057,-0.06674z" data-paper-data="{&quot;glyphName&quot;:&quot;'&quot;,&quot;glyphIndex&quot;:11,&quot;lastGlyphOfWord&quot;:true,&quot;word&quot;:2}"></path></g><g data-paper-data="{&quot;fillRule&quot;:&quot;evenodd&quot;,&quot;fillRuleOriginal&quot;:&quot;evenodd&quot;,&quot;isIcon&quot;:true,&quot;iconStyle&quot;:&quot;standalone&quot;,&quot;selectedEffects&quot;:{&quot;container&quot;:&quot;&quot;,&quot;transformation&quot;:&quot;&quot;,&quot;pattern&quot;:&quot;&quot;},&quot;bounds&quot;:{&quot;x&quot;:221.71677970498462,&quot;y&quot;:114.99999999999997,&quot;width&quot;:106.56644059003082,&quot;height&quot;:149.38163507153362},&quot;iconType&quot;:&quot;icon&quot;,&quot;rawIconId&quot;:&quot;3697773&quot;,&quot;isDetailed&quot;:false,&quot;suitableAsStandaloneIcon&quot;:true}" fill-rule="evenodd"><path d="M287.49193,155.19237c0,0.65782 -0.00499,1.31522 -0.01498,1.97219c-0.01013,0.65697 -0.02517,1.31272 -0.04514,1.96727c-0.02011,0.65469 -0.04514,1.30737 -0.07508,1.95806c-0.02994,0.65055 -0.06488,1.29839 -0.10481,1.94352c-0.03993,0.64528 -0.08471,1.28691 -0.13433,1.92491c-0.04977,0.638 -0.10431,1.27172 -0.16363,1.90117c-0.05932,0.62959 -0.12342,1.25404 -0.1923,1.87337c-0.06888,0.61932 -0.14239,1.23279 -0.22053,1.84042c-0.07829,0.60777 -0.16114,1.20898 -0.24856,1.80363c-0.08742,0.59451 -0.17933,1.18181 -0.27572,1.76192c-0.0964,0.5801 -0.19715,1.15229 -0.30224,1.71657c-0.1051,0.56413 -0.2144,1.11971 -0.32792,1.66673c-0.11366,0.54688 -0.23137,1.08449 -0.35315,1.61283c-0.12178,0.52834 -0.24749,1.04669 -0.37711,1.55508c-0.12977,0.50852 -0.26324,1.00648 -0.40042,1.4939c-0.13733,0.48741 -0.27829,0.96363 -0.42288,1.42866c-0.1446,0.46517 -0.29262,0.91864 -0.44406,1.36043c-0.15144,0.44164 -0.30617,0.87116 -0.46417,1.28855c-0.15814,0.41725 -0.31929,0.82182 -0.48342,1.21369c-0.16427,0.39173 -0.33141,0.77034 -0.50139,1.13582c-0.16998,0.36549 -0.3426,0.71729 -0.51786,1.0554c-0.1754,0.33825 -0.35323,0.66239 -0.53347,0.9724c-0.18039,0.31002 -0.36299,0.60571 -0.5478,0.88706c-0.18481,0.28121 -0.37162,0.54766 -0.56043,0.79936c-0.18895,0.25169 -0.37968,0.48834 -0.57219,0.70994c-0.19237,0.2216 -0.38638,0.42787 -0.58203,0.61882c-0.19565,0.19095 -0.39266,0.36634 -0.59101,0.5262c-0.19836,0.15985 -0.39779,0.30395 -0.59829,0.4323c-0.2005,0.1282 -0.40185,0.24057 -0.60406,0.33711c-0.20221,0.09654 -0.40506,0.17704 -0.60855,0.2415c-0.2035,0.06446 -0.40727,0.11287 -0.61134,0.14524c-0.2042,0.03223 -0.40855,0.04834 -0.61305,0.04834c-0.20449,0 -0.40884,-0.01611 -0.61305,-0.04834c-0.20406,-0.03237 -0.40784,-0.08079 -0.61134,-0.14524c-0.2035,-0.06446 -0.40635,-0.14495 -0.60855,-0.2415c-0.20221,-0.09654 -0.40356,-0.20891 -0.60406,-0.33711c-0.2005,-0.12834 -0.39992,-0.27244 -0.59829,-0.4323c-0.19836,-0.15985 -0.39536,-0.33526 -0.59101,-0.5262c-0.19565,-0.19095 -0.38966,-0.39722 -0.58203,-0.61882c-0.19252,-0.2216 -0.38325,-0.45825 -0.57219,-0.70994c-0.1888,-0.25169 -0.37561,-0.51815 -0.56043,-0.79936c-0.18481,-0.28135 -0.36741,-0.57704 -0.5478,-0.88706c-0.18025,-0.31002 -0.35808,-0.63415 -0.53347,-0.9724c-0.17525,-0.33811 -0.34788,-0.68991 -0.51786,-1.0554c-0.16998,-0.36549 -0.33711,-0.7441 -0.50139,-1.13582c-0.16413,-0.39187 -0.32528,-0.79644 -0.48342,-1.21369c-0.158,-0.41739 -0.31272,-0.84691 -0.46417,-1.28855c-0.15144,-0.44178 -0.29947,-0.89525 -0.44406,-1.36043c-0.1446,-0.46503 -0.28556,-0.94125 -0.42288,-1.42866c-0.13718,-0.48741 -0.27066,-0.98538 -0.40042,-1.4939c-0.12963,-0.50838 -0.25533,-1.02674 -0.37711,-1.55508c-0.12178,-0.52834 -0.2395,-1.06595 -0.35315,-1.61283c-0.11351,-0.54702 -0.22282,-1.1026 -0.32792,-1.66673c-0.1051,-0.56427 -0.20585,-1.13647 -0.30224,-1.71657c-0.0964,-0.5801 -0.1883,-1.16741 -0.27572,-1.76192c-0.08742,-0.59465 -0.17027,-1.19586 -0.24856,-1.80363c-0.07815,-0.60762 -0.15166,-1.2211 -0.22053,-1.84042c-0.06888,-0.61932 -0.13298,-1.24377 -0.1923,-1.87337c-0.05932,-0.62944 -0.11387,-1.26317 -0.16363,-1.90117c-0.04962,-0.638 -0.0944,-1.27964 -0.13433,-1.92491c-0.03993,-0.64513 -0.07486,-1.29297 -0.10481,-1.94352c-0.02994,-0.65069 -0.05497,-1.30338 -0.07508,-1.95806c-0.01996,-0.65455 -0.03501,-1.3103 -0.04514,-1.96727c-0.00998,-0.65697 -0.01498,-1.31436 -0.01498,-1.97219c0,-0.65782 0.00499,-1.31522 0.01498,-1.97219c0.01013,-0.65697 0.02517,-1.31272 0.04514,-1.96727c0.02011,-0.65469 0.04514,-1.30737 0.07508,-1.95806c0.02994,-0.65055 0.06488,-1.29839 0.10481,-1.94352c0.03993,-0.64528 0.08471,-1.28691 0.13433,-1.92491c0.04977,-0.638 0.10431,-1.27172 0.16363,-1.90117c0.05932,-0.62959 0.12342,-1.25404 0.1923,-1.87337c0.06888,-0.61932 0.14239,-1.23279 0.22053,-1.84042c0.07829,-0.60777 0.16114,-1.20898 0.24856,-1.80363c0.08742,-0.59451 0.17933,-1.18181 0.27572,-1.76192c0.0964,-0.5801 0.19715,-1.15229 0.30224,-1.71657c0.1051,-0.56413 0.2144,-1.11971 0.32792,-1.66673c0.11366,-0.54688 0.23137,-1.08449 0.35315,-1.61283c0.12178,-0.52834 0.24749,-1.04677 0.37711,-1.55529c0.12977,-0.50838 0.26324,-1.00627 0.40042,-1.49368c0.13733,-0.48741 0.27829,-0.96363 0.42288,-1.42866c0.1446,-0.46517 0.29262,-0.91864 0.44406,-1.36043c0.15144,-0.44164 0.30617,-0.87116 0.46417,-1.28855c0.15814,-0.41725 0.31929,-0.82182 0.48342,-1.21369c0.16427,-0.39173 0.33141,-0.77034 0.50139,-1.13582c0.16998,-0.36549 0.3426,-0.71729 0.51786,-1.0554c0.1754,-0.33825 0.35323,-0.66239 0.53347,-0.9724c0.18039,-0.31002 0.36299,-0.60571 0.5478,-0.88706c0.18481,-0.28121 0.37162,-0.54766 0.56043,-0.79936c0.18895,-0.25169 0.37968,-0.48834 0.57219,-0.70994c0.19237,-0.2216 0.38638,-0.42787 0.58203,-0.61882c0.19565,-0.19095 0.39266,-0.36634 0.59101,-0.5262c0.19836,-0.15985 0.39779,-0.30395 0.59829,-0.4323c0.2005,-0.1282 0.40185,-0.24057 0.60406,-0.33711c0.20221,-0.09654 0.40506,-0.17704 0.60855,-0.2415c0.2035,-0.06446 0.40727,-0.11287 0.61134,-0.14524c0.2042,-0.03223 0.40855,-0.04834 0.61305,-0.04834c0.20449,0 0.40884,0.01611 0.61305,0.04834c0.20406,0.03237 0.40784,0.08079 0.61134,0.14524c0.2035,0.06446 0.40635,0.14495 0.60855,0.2415c0.20221,0.09654 0.40356,0.20891 0.60406,0.33711c0.2005,0.12834 0.39992,0.27244 0.59829,0.4323c0.19836,0.15985 0.39536,0.33526 0.59101,0.5262c0.19565,0.19095 0.38966,0.39722 0.58203,0.61882c0.19252,0.2216 0.38325,0.45825 0.57219,0.70994c0.1888,0.25169 0.37561,0.51815 0.56043,0.79936c0.18481,0.28135 0.36741,0.57704 0.5478,0.88706c0.18025,0.31002 0.35808,0.63415 0.53347,0.9724c0.17525,0.33811 0.34788,0.68991 0.51786,1.0554c0.16998,0.36549 0.33711,0.7441 0.50139,1.13582c0.16413,0.39187 0.32528,0.79644 0.48342,1.21369c0.158,0.41739 0.31272,0.84691 0.46417,1.28855c0.15144,0.44178 0.29947,0.89525 0.44406,1.36043c0.1446,0.46503 0.28556,0.94125 0.42288,1.42866c0.13718,0.48741 0.27066,0.98531 0.40042,1.49368c0.12963,0.50852 0.25533,1.02695 0.37711,1.55529c0.12178,0.52834 0.2395,1.06595 0.35315,1.61283c0.11351,0.54702 0.22282,1.1026 0.32792,1.66673c0.1051,0.56427 0.20585,1.13647 0.30224,1.71657c0.0964,0.5801 0.1883,1.16741 0.27572,1.76192c0.08742,0.59465 0.17027,1.19586 0.24856,1.80363c0.07815,0.60762 0.15166,1.2211 0.22053,1.84042c0.06888,0.61932 0.13298,1.24377 0.1923,1.87337c0.05932,0.62944 0.11387,1.26317 0.16363,1.90117c0.04962,0.638 0.0944,1.27964 0.13433,1.92491c0.03993,0.64513 0.07486,1.29297 0.10481,1.94352c0.02994,0.65069 0.05497,1.30338 0.07508,1.95806c0.01996,0.65455 0.03501,1.3103 0.04514,1.96727c0.00998,0.65697 0.01498,1.31436 0.01498,1.97219zM221.71678,161.63085c3.97753,21.66516 20.92484,38.62103 42.58808,42.60947c-4.0002,-21.65339 -20.93682,-38.59857 -42.58808,-42.60947zM300.34749,176.30459c-7.60061,7.61302 -12.71011,17.3548 -14.65235,27.93573c21.66324,-3.98844 38.61055,-20.94431 42.58808,-42.60947c-10.58692,1.93796 -20.3319,7.05645 -27.93573,14.67374zM263.107,214.35793c0,0.10224 -0.00806,0.20442 -0.02417,0.30652c-0.01611,0.1021 -0.04029,0.204 -0.07251,0.30566c-0.03223,0.10168 -0.07244,0.20314 -0.12064,0.30439c-0.04834,0.1011 -0.10453,0.20178 -0.16855,0.30203c-0.06417,0.10025 -0.13618,0.19992 -0.21604,0.29904c-0.07986,0.09911 -0.16749,0.19757 -0.26289,0.2954c-0.0954,0.09782 -0.1985,0.19487 -0.3093,0.29112c-0.1108,0.09625 -0.22909,0.19159 -0.35486,0.28599c-0.12577,0.09454 -0.25889,0.18802 -0.39936,0.28043c-0.14061,0.09241 -0.28841,0.18367 -0.44342,0.27379c-0.15486,0.09012 -0.31679,0.17903 -0.48577,0.26674c-0.16898,0.0877 -0.34481,0.17404 -0.52748,0.25904c-0.18267,0.08499 -0.37191,0.16849 -0.5677,0.25048c-0.19579,0.08214 -0.39793,0.16271 -0.60641,0.24171c-0.20863,0.079 -0.42331,0.15643 -0.64406,0.2323c-0.22075,0.07572 -0.44735,0.14973 -0.67978,0.22203c-0.23244,0.07216 -0.47045,0.1426 -0.71401,0.21134c-0.24357,0.06859 -0.49233,0.13533 -0.74631,0.20022c-0.25411,0.06488 -0.51322,0.12777 -0.77732,0.18866c-0.26396,0.06089 -0.53262,0.11971 -0.80599,0.17647c-0.27337,0.05676 -0.55102,0.11145 -0.83294,0.16407c-0.28192,0.05248 -0.56784,0.10282 -0.85775,0.15102c-0.28991,0.0482 -0.58345,0.09419 -0.88064,0.13797c-0.29704,0.04363 -0.59743,0.08499 -0.90117,0.12406c-0.30375,0.03921 -0.61034,0.07601 -0.91978,0.11037c-0.30944,0.03451 -0.62146,0.06659 -0.93604,0.09625c-0.31458,0.02966 -0.6313,0.0569 -0.95016,0.08171c-0.31886,0.02481 -0.6395,0.0472 -0.96192,0.06716c-0.32243,0.01996 -0.6462,0.03744 -0.97133,0.0524c-0.32513,0.01498 -0.65127,0.02745 -0.97839,0.03744c-0.32713,0.01013 -0.6549,0.01768 -0.98331,0.02268c-0.32827,0.00499 -0.65676,0.00748 -0.98545,0.00748c-0.3287,0 -0.65718,-0.00249 -0.98545,-0.00748c-0.32842,-0.00499 -0.65618,-0.01255 -0.98331,-0.02268c-0.32713,-0.00998 -0.65326,-0.02246 -0.97839,-0.03744c-0.32513,-0.01498 -0.64891,-0.03244 -0.97133,-0.0524c-0.32243,-0.01996 -0.64307,-0.04235 -0.96192,-0.06716c-0.31886,-0.02481 -0.63557,-0.05205 -0.95016,-0.08171c-0.31458,-0.02966 -0.6266,-0.06175 -0.93604,-0.09625c-0.30944,-0.03437 -0.61604,-0.07116 -0.91978,-0.11037c-0.30375,-0.03907 -0.60414,-0.08043 -0.90117,-0.12406c-0.29718,-0.04378 -0.59073,-0.08977 -0.88064,-0.13797c-0.28991,-0.0482 -0.57583,-0.09854 -0.85775,-0.15102c-0.28192,-0.05262 -0.55957,-0.10731 -0.83294,-0.16407c-0.27337,-0.05676 -0.54203,-0.11558 -0.80599,-0.17647c-0.2641,-0.06089 -0.52321,-0.12378 -0.77732,-0.18866c-0.25397,-0.06488 -0.50274,-0.13162 -0.74631,-0.20022c-0.24357,-0.06873 -0.48157,-0.13918 -0.71401,-0.21134c-0.23244,-0.0723 -0.45903,-0.14631 -0.67978,-0.22203c-0.22075,-0.07586 -0.43543,-0.1533 -0.64406,-0.2323c-0.20848,-0.079 -0.41062,-0.15957 -0.60641,-0.24171c-0.19579,-0.082 -0.38502,-0.16549 -0.5677,-0.25048c-0.18267,-0.08499 -0.3585,-0.17133 -0.52748,-0.25904c-0.16898,-0.0877 -0.33091,-0.17661 -0.48577,-0.26674c-0.15501,-0.09012 -0.30282,-0.18139 -0.44342,-0.27379c-0.14046,-0.09241 -0.27359,-0.18588 -0.39936,-0.28043c-0.12577,-0.0944 -0.24406,-0.18973 -0.35486,-0.28599c-0.1108,-0.09625 -0.2139,-0.1933 -0.3093,-0.29112c-0.0954,-0.09782 -0.18303,-0.19629 -0.26289,-0.2954c-0.07986,-0.09911 -0.15187,-0.19879 -0.21604,-0.29904c-0.06402,-0.10025 -0.12021,-0.20093 -0.16855,-0.30203c-0.0482,-0.10125 -0.08841,-0.20271 -0.12064,-0.30439c-0.03223,-0.10168 -0.0564,-0.20356 -0.07251,-0.30566c-0.01611,-0.1021 -0.02417,-0.20428 -0.02417,-0.30652c0,-0.10224 0.00806,-0.20442 0.02417,-0.30652c0.01611,-0.1021 0.04029,-0.204 0.07251,-0.30566c0.03223,-0.10168 0.07244,-0.20314 0.12064,-0.30439c0.04834,-0.1011 0.10453,-0.20178 0.16855,-0.30203c0.06417,-0.10025 0.13618,-0.19992 0.21604,-0.29904c0.07986,-0.09911 0.16749,-0.19757 0.26289,-0.2954c0.0954,-0.09782 0.1985,-0.19487 0.3093,-0.29112c0.1108,-0.09625 0.22909,-0.19159 0.35486,-0.28599c0.12577,-0.09454 0.25889,-0.18802 0.39936,-0.28043c0.14061,-0.09241 0.28841,-0.18367 0.44342,-0.27379c0.15486,-0.09012 0.31679,-0.17903 0.48577,-0.26674c0.16898,-0.0877 0.34481,-0.17404 0.52748,-0.25904c0.18267,-0.08499 0.37191,-0.16849 0.5677,-0.25048c0.19579,-0.08214 0.39793,-0.16271 0.60641,-0.24171c0.20863,-0.079 0.42331,-0.15643 0.64406,-0.2323c0.22075,-0.07572 0.44735,-0.14973 0.67978,-0.22203c0.23244,-0.07216 0.47045,-0.1426 0.71401,-0.21134c0.24357,-0.06859 0.49233,-0.13533 0.74631,-0.20022c0.25411,-0.06488 0.51322,-0.12777 0.77732,-0.18866c0.26396,-0.06089 0.53262,-0.11971 0.80599,-0.17647c0.27337,-0.05676 0.55102,-0.11145 0.83294,-0.16407c0.28192,-0.05248 0.56784,-0.10282 0.85775,-0.15102c0.28991,-0.0482 0.58345,-0.09419 0.88064,-0.13797c0.29704,-0.04363 0.59743,-0.08499 0.90117,-0.12406c0.30375,-0.03921 0.61034,-0.07601 0.91978,-0.11037c0.30944,-0.03451 0.62146,-0.06659 0.93604,-0.09625c0.31458,-0.02966 0.6313,-0.0569 0.95016,-0.08171c0.31886,-0.02481 0.6395,-0.0472 0.96192,-0.06716c0.32243,-0.01996 0.6462,-0.03744 0.97133,-0.0524c0.32513,-0.01498 0.65127,-0.02745 0.97839,-0.03744c0.32713,-0.01013 0.6549,-0.01768 0.98331,-0.02268c0.32827,-0.00499 0.65676,-0.00748 0.98545,-0.00748c0.3287,0 0.65718,0.00249 0.98545,0.00748c0.32842,0.00499 0.65618,0.01255 0.98331,0.02268c0.32713,0.00998 0.65326,0.02246 0.97839,0.03744c0.32513,0.01498 0.64891,0.03244 0.97133,0.0524c0.32243,0.01996 0.64307,0.04235 0.96192,0.06716c0.31886,0.02481 0.63557,0.05205 0.95016,0.08171c0.31458,0.02966 0.6266,0.06175 0.93604,0.09625c0.30944,0.03437 0.61604,0.07116 0.91978,0.11037c0.30375,0.03907 0.60414,0.08043 0.90117,0.12406c0.29718,0.04378 0.59073,0.08977 0.88064,0.13797c0.28991,0.0482 0.57583,0.09854 0.85775,0.15102c0.28192,0.05262 0.55957,0.10731 0.83294,0.16407c0.27337,0.05676 0.54203,0.11558 0.80599,0.17647c0.2641,0.06089 0.52321,0.12378 0.77732,0.18866c0.25397,0.06488 0.50274,0.13162 0.74631,0.20022c0.24357,0.06873 0.48157,0.13918 0.71401,0.21134c0.23244,0.0723 0.45903,0.14631 0.67978,0.22203c0.22075,0.07586 0.43543,0.1533 0.64406,0.2323c0.20848,0.079 0.41062,0.15957 0.60641,0.24171c0.19579,0.082 0.38502,0.16549 0.5677,0.25048c0.18267,0.08499 0.3585,0.17133 0.52748,0.25904c0.16898,0.0877 0.33091,0.17661 0.48577,0.26674c0.15501,0.09012 0.30282,0.18139 0.44342,0.27379c0.14046,0.09241 0.27359,0.18588 0.39936,0.28043c0.12577,0.0944 0.24406,0.18973 0.35486,0.28599c0.1108,0.09625 0.2139,0.1933 0.3093,0.29112c0.0954,0.09782 0.18303,0.19629 0.26289,0.2954c0.07986,0.09911 0.15187,0.19879 0.21604,0.29904c0.06402,0.10025 0.12021,0.20093 0.16855,0.30203c0.0482,0.10125 0.08841,0.20271 0.12064,0.30439c0.03223,0.10168 0.0564,0.20356 0.07251,0.30566c0.01611,0.1021 0.02417,0.20428 0.02417,0.30652zM327.06397,214.35793c0,0.10224 -0.00806,0.20442 -0.02417,0.30652c-0.01611,0.1021 -0.04029,0.204 -0.07251,0.30566c-0.03223,0.10168 -0.07244,0.20314 -0.12064,0.30439c-0.04834,0.1011 -0.10453,0.20178 -0.16855,0.30203c-0.06417,0.10025 -0.13618,0.19992 -0.21604,0.29904c-0.07986,0.09911 -0.16749,0.19757 -0.26289,0.2954c-0.0954,0.09782 -0.1985,0.19487 -0.3093,0.29112c-0.1108,0.09625 -0.22909,0.19159 -0.35486,0.28599c-0.12577,0.09454 -0.25889,0.18802 -0.39936,0.28043c-0.14061,0.09241 -0.28841,0.18367 -0.44342,0.27379c-0.15486,0.09012 -0.31679,0.17903 -0.48577,0.26674c-0.16898,0.0877 -0.34481,0.17404 -0.52748,0.25904c-0.18267,0.08499 -0.37191,0.16849 -0.5677,0.25048c-0.19579,0.08214 -0.39793,0.16271 -0.60641,0.24171c-0.20863,0.079 -0.42331,0.15643 -0.64406,0.2323c-0.22075,0.07572 -0.44735,0.14973 -0.67978,0.22203c-0.23244,0.07216 -0.47045,0.1426 -0.71401,0.21134c-0.24357,0.06859 -0.49233,0.13533 -0.74631,0.20022c-0.25411,0.06488 -0.51322,0.12777 -0.77732,0.18866c-0.26396,0.06089 -0.53262,0.11971 -0.80599,0.17647c-0.27337,0.05676 -0.55102,0.11145 -0.83294,0.16407c-0.28192,0.05248 -0.56784,0.10282 -0.85775,0.15102c-0.28991,0.0482 -0.58345,0.09419 -0.88064,0.13797c-0.29704,0.04363 -0.59743,0.08499 -0.90117,0.12406c-0.30375,0.03921 -0.61034,0.07601 -0.91978,0.11037c-0.30944,0.03451 -0.62146,0.06659 -0.93604,0.09625c-0.31458,0.02966 -0.6313,0.0569 -0.95016,0.08171c-0.31886,0.02481 -0.6395,0.0472 -0.96192,0.06716c-0.32243,0.01996 -0.6462,0.03744 -0.97133,0.0524c-0.32513,0.01498 -0.65127,0.02745 -0.97839,0.03744c-0.32713,0.01013 -0.6549,0.01768 -0.98331,0.02268c-0.32827,0.00499 -0.65676,0.00748 -0.98545,0.00748c-0.3287,0 -0.65718,-0.00249 -0.98545,-0.00748c-0.32842,-0.00499 -0.65618,-0.01255 -0.98331,-0.02268c-0.32713,-0.00998 -0.65326,-0.02246 -0.97839,-0.03744c-0.32513,-0.01498 -0.64891,-0.03244 -0.97133,-0.0524c-0.32243,-0.01996 -0.64307,-0.04235 -0.96192,-0.06716c-0.31886,-0.02481 -0.63557,-0.05205 -0.95016,-0.08171c-0.31458,-0.02966 -0.6266,-0.06175 -0.93604,-0.09625c-0.30944,-0.03437 -0.61604,-0.07116 -0.91978,-0.11037c-0.30375,-0.03907 -0.60414,-0.08043 -0.90117,-0.12406c-0.29718,-0.04378 -0.59073,-0.08977 -0.88064,-0.13797c-0.28991,-0.0482 -0.57583,-0.09854 -0.85775,-0.15102c-0.28192,-0.05262 -0.55957,-0.10731 -0.83294,-0.16407c-0.27337,-0.05676 -0.54203,-0.11558 -0.80599,-0.17647c-0.2641,-0.06089 -0.52321,-0.12378 -0.77732,-0.18866c-0.25397,-0.06488 -0.50274,-0.13162 -0.74631,-0.20022c-0.24357,-0.06873 -0.48157,-0.13918 -0.71401,-0.21134c-0.23244,-0.0723 -0.45903,-0.14631 -0.67978,-0.22203c-0.22075,-0.07586 -0.43543,-0.1533 -0.64406,-0.2323c-0.20848,-0.079 -0.41062,-0.15957 -0.60641,-0.24171c-0.19579,-0.082 -0.38502,-0.16549 -0.5677,-0.25048c-0.18267,-0.08499 -0.3585,-0.17133 -0.52748,-0.25904c-0.16898,-0.0877 -0.33091,-0.17661 -0.48577,-0.26674c-0.15501,-0.09012 -0.30282,-0.18139 -0.44342,-0.27379c-0.14046,-0.09241 -0.27359,-0.18588 -0.39936,-0.28043c-0.12577,-0.0944 -0.24406,-0.18973 -0.35486,-0.28599c-0.1108,-0.09625 -0.2139,-0.1933 -0.3093,-0.29112c-0.0954,-0.09782 -0.18303,-0.19629 -0.26289,-0.2954c-0.07986,-0.09911 -0.15187,-0.19879 -0.21604,-0.29904c-0.06402,-0.10025 -0.12021,-0.20093 -0.16855,-0.30203c-0.0482,-0.10125 -0.08841,-0.20271 -0.12064,-0.30439c-0.03223,-0.10168 -0.0564,-0.20356 -0.07251,-0.30566c-0.01611,-0.1021 -0.02417,-0.20428 -0.02417,-0.30652c0,-0.10224 0.00806,-0.20442 0.02417,-0.30652c0.01611,-0.1021 0.04029,-0.204 0.07251,-0.30566c0.03223,-0.10168 0.07244,-0.20314 0.12064,-0.30439c0.04834,-0.1011 0.10453,-0.20178 0.16855,-0.30203c0.06417,-0.10025 0.13618,-0.19992 0.21604,-0.29904c0.07986,-0.09911 0.16749,-0.19757 0.26289,-0.2954c0.0954,-0.09782 0.1985,-0.19487 0.3093,-0.29112c0.1108,-0.09625 0.22909,-0.19159 0.35486,-0.28599c0.12577,-0.09454 0.25889,-0.18802 0.39936,-0.28043c0.14061,-0.09241 0.28841,-0.18367 0.44342,-0.27379c0.15486,-0.09012 0.31679,-0.17903 0.48577,-0.26674c0.16898,-0.0877 0.34481,-0.17404 0.52748,-0.25904c0.18267,-0.08499 0.37191,-0.16849 0.5677,-0.25048c0.19579,-0.08214 0.39793,-0.16271 0.60641,-0.24171c0.20863,-0.079 0.42331,-0.15643 0.64406,-0.2323c0.22075,-0.07572 0.44735,-0.14973 0.67978,-0.22203c0.23244,-0.07216 0.47045,-0.1426 0.71401,-0.21134c0.24357,-0.06859 0.49233,-0.13533 0.74631,-0.20022c0.25411,-0.06488 0.51322,-0.12777 0.77732,-0.18866c0.26396,-0.06089 0.53262,-0.11971 0.80599,-0.17647c0.27337,-0.05676 0.55102,-0.11145 0.83294,-0.16407c0.28192,-0.05248 0.56784,-0.10282 0.85775,-0.15102c0.28991,-0.0482 0.58345,-0.09419 0.88064,-0.13797c0.29704,-0.04363 0.59743,-0.08499 0.90117,-0.12406c0.30375,-0.03921 0.61034,-0.07601 0.91978,-0.11037c0.30944,-0.03451 0.62146,-0.06659 0.93604,-0.09625c0.31458,-0.02966 0.6313,-0.0569 0.95016,-0.08171c0.31886,-0.02481 0.6395,-0.0472 0.96192,-0.06716c0.32243,-0.01996 0.6462,-0.03744 0.97133,-0.0524c0.32513,-0.01498 0.65127,-0.02745 0.97839,-0.03744c0.32713,-0.01013 0.6549,-0.01768 0.98331,-0.02268c0.32827,-0.00499 0.65676,-0.00748 0.98545,-0.00748c0.3287,0 0.65718,0.00249 0.98545,0.00748c0.32842,0.00499 0.65618,0.01255 0.98331,0.02268c0.32713,0.00998 0.65326,0.02246 0.97839,0.03744c0.32513,0.01498 0.64891,0.03244 0.97133,0.0524c0.32243,0.01996 0.64307,0.04235 0.96192,0.06716c0.31886,0.02481 0.63557,0.05205 0.95016,0.08171c0.31458,0.02966 0.6266,0.06175 0.93604,0.09625c0.30944,0.03437 0.61604,0.07116 0.91978,0.11037c0.30375,0.03907 0.60414,0.08043 0.90117,0.12406c0.29718,0.04378 0.59073,0.08977 0.88064,0.13797c0.28991,0.0482 0.57583,0.09854 0.85775,0.15102c0.28192,0.05262 0.55957,0.10731 0.83294,0.16407c0.27337,0.05676 0.54203,0.11558 0.80599,0.17647c0.2641,0.06089 0.52321,0.12378 0.77732,0.18866c0.25397,0.06488 0.50274,0.13162 0.74631,0.20022c0.24357,0.06873 0.48157,0.13918 0.71401,0.21134c0.23244,0.0723 0.45903,0.14631 0.67978,0.22203c0.22075,0.07586 0.43543,0.1533 0.64406,0.2323c0.20848,0.079 0.41062,0.15957 0.60641,0.24171c0.19579,0.082 0.38502,0.16549 0.5677,0.25048c0.18267,0.08499 0.3585,0.17133 0.52748,0.25904c0.16898,0.0877 0.33091,0.17661 0.48577,0.26674c0.15501,0.09012 0.30282,0.18139 0.44342,0.27379c0.14046,0.09241 0.27359,0.18588 0.39936,0.28043c0.12577,0.0944 0.24406,0.18973 0.35486,0.28599c0.1108,0.09625 0.2139,0.1933 0.3093,0.29112c0.0954,0.09782 0.18303,0.19629 0.26289,0.2954c0.07986,0.09911 0.15187,0.19879 0.21604,0.29904c0.06402,0.10025 0.12021,0.20093 0.16855,0.30203c0.0482,0.10125 0.08841,0.20271 0.12064,0.30439c0.03223,0.10168 0.0564,0.20356 0.07251,0.30566c0.01611,0.1021 0.02417,0.20428 0.02417,0.30652zM289.9732,259.44865c8.23355,-8.28425 8.23355,-21.66217 0,-29.94641l-14.97321,-14.97321l-14.97321,14.97321c-7.04468,8.44767 -6.48339,20.87393 1.29454,28.65187c7.77794,7.77794 20.2042,8.33922 28.65187,1.29454z" data-paper-data="{&quot;isPathIcon&quot;:true}"></path></g></g></g></svg>
