<svg width="47" height="80" viewBox="0 0 47 80" fill="none" xmlns="http://www.w3.org/2000/svg">
<path d="M38.2773 63.6184C35.7083 61.5327 33.2175 59.4124 30.6193 57.4329C26.1019 53.9911 21.2404 51.0617 16.4169 48.0757C14.099 46.6408 11.8245 45.1217 9.63551 43.4989C8.5489 42.6933 7.58578 41.653 6.76897 40.5668C5.37308 38.7106 5.19631 36.5952 6.08118 34.4585C6.66421 33.0506 7.81202 32.1903 9.27305 31.7992C11.3885 31.233 13.4841 31.5105 15.5538 32.0698C18.1163 32.7622 20.4827 33.913 22.7407 35.2836C25.33 36.8553 27.6966 38.7194 29.9136 40.7873C33.5663 44.1944 36.6181 48.0663 39.1189 52.3847C41.6453 56.7473 43.3787 61.4049 44.3197 66.3526C44.5409 67.5153 44.6246 68.7042 44.7782 69.9346C42.5667 67.7859 40.4369 65.7166 38.2773 63.6184Z" fill="#C5D8D1"/>
<path d="M45.7564 73.0148C45.2519 73.7049 44.8229 74.4697 44.2287 75.0713C42.4303 76.8918 40.1993 78.0202 37.7704 78.7246C29.5686 81.1034 21.6933 80.0781 14.1307 76.2872C9.7272 74.0799 6.02096 71.0062 3.12468 67.0009C1.69104 65.0184 0.662468 62.8534 0.17778 60.4269C-0.611227 56.4769 1.27917 52.3887 4.79332 50.7086C7.27541 49.5219 9.55166 50.0298 11.6143 51.7266C13.3893 53.1867 14.4267 55.1478 15.2498 57.241C16.0219 59.2045 16.677 61.2221 17.5721 63.1273C19.0203 66.2099 21.3437 68.6012 24.0477 70.6218C27.3771 73.1096 31.0496 74.8373 35.1979 75.4206C38.9885 75.9536 42.5363 75.3509 45.7235 73.0269C45.7614 73.0209 45.7564 73.0148 45.7564 73.0148Z" fill="#51823E"/>
<path d="M22.1751 28.8222C21.7225 28.4237 21.2718 28.0807 20.8869 27.6752C18.9904 25.6771 18.8174 23.557 20.2862 21.225C21.9017 18.6602 24.2824 17.7952 27.1724 18.1059C30.0722 18.4176 32.5882 19.6941 34.8773 21.421C39.7541 25.1001 43.0612 29.9064 44.7939 35.7475C46.0457 39.9672 45.944 44.1682 44.0989 48.2423C43.9492 48.5728 43.7601 48.8856 43.5379 49.3033C43.4442 49.1006 43.3756 48.9962 43.346 48.8816C42.2255 44.5494 39.6894 41.1557 36.5062 38.0956C33.6616 35.361 30.3237 33.4661 26.887 31.6562C25.2799 30.8099 23.7643 29.79 22.1751 28.8222Z" fill="#096F74"/>
<path d="M42.1482 3.60766C44.8128 6.44552 45.9547 9.89769 46.4487 13.6194C46.8652 16.7563 46.7298 19.887 46.198 22.9972C46.0229 24.0215 45.7162 25.0264 45.0019 25.9244C44.7871 25.457 44.5983 25.0406 44.4048 24.6263C42.8712 21.3429 40.359 18.9869 37.3005 17.1562C35.6382 16.1612 33.952 15.2062 32.2943 14.2037C27.7157 11.4349 27.0587 4.60709 31.0124 1.05229C31.9365 0.221397 33.0106 -0.0941528 34.2309 0.0239054C37.2621 0.317163 39.9369 1.40056 42.1482 3.60766Z" fill="#D95305"/>
</svg>
